<svg xmlns="http://www.w3.org/2000/svg">
  <symbol viewBox="0 0 50 50">
    <title>This icon is missing! :(</title>
    <path d="M26.8 19.2l7.8-7.8c.5-.5.5-1.3 0-1.8s-1.3-.5-1.8 0L25 17.4l-7.8-7.8c-.5-.5-1.3-.5-1.8 0s-.5 1.3 0 1.8l7.8 7.8-7.8 7.8c-.5.5-.5 1.3 0 1.8.2.2.6.4.9.4s.6-.1.9-.4L25 21l7.8 7.8c.2.2.6.4.9.4s.6-.1.9-.4c.5-.5.5-1.3 0-1.8l-7.8-7.8zM6.2 40.9l1.1-7 2.6 5.6 2.6-5.6 1 7h-.8l-.6-4.6-2.3 4.9-2.2-4.9-.7 4.6h-.7zM15.8 34.2v6.7H15v-6.7h.8zM20.5 35.5c-.1-.2-.2-.4-.4-.5-.1-.1-.4-.2-.8-.2-.7 0-1.1.4-1.1 1 0 .3.1.4.2.6.2.2.4.3.7.4l.6.3c.4.2.8.4 1 .6.3.3.5.7.5 1.2 0 1.2-.9 2-2.1 2-.4 0-1-.1-1.4-.5-.3-.3-.5-.8-.6-1.2l.7-.2c0 .3.2.6.4.8.3.3.6.4 1 .4.9 0 1.3-.6 1.3-1.3 0-.3-.1-.6-.3-.8-.2-.2-.4-.3-.8-.5l-.6-.3c-.3-.1-.6-.3-.9-.5-.3-.3-.5-.6-.5-1.1 0-1 .8-1.7 1.9-1.7.4 0 .7.1 1.1.3.3.2.5.4.6.7l-.5.5zM25.4 35.5c-.1-.2-.2-.4-.4-.5-.1-.1-.4-.2-.8-.2-.7 0-1.1.4-1.1 1 0 .3.1.4.2.6.2.2.4.3.7.4l.6.3c.4.2.8.4 1 .6.3.3.5.7.5 1.2 0 1.2-.9 2-2.1 2-.4 0-1-.1-1.4-.5-.3-.3-.5-.8-.6-1.2l.7-.2c0 .3.2.6.4.8.3.3.6.4 1 .4.9 0 1.3-.6 1.3-1.3 0-.3-.1-.6-.3-.8-.2-.2-.4-.3-.8-.5l-.6-.3c-.3-.1-.6-.3-.9-.5-.3-.3-.5-.6-.5-1.1 0-1 .8-1.7 1.9-1.7.4 0 .7.1 1.1.3.3.2.5.4.6.7l-.5.5zM28.4 34.2v6.7h-.7v-6.7h.7zM30.1 40.9V34l5.2 5.4v-5.2h.7v7l-5.2-5.4v5.1h-.7zM41.2 37.5H44v.2c0 .7-.2 1.5-.6 2.1-.2.3-.9 1.2-2.5 1.2-2 0-3.5-1.5-3.5-3.4s1.5-3.4 3.5-3.4c.6 0 1.4.2 2 .7.3.2.6.5.8.8l-.5.5c-.2-.3-.4-.5-.6-.7-.3-.3-.8-.6-1.6-.6-1.6 0-2.7 1.2-2.7 2.8 0 1.8 1.4 2.7 2.7 2.7.9 0 1.7-.4 2-1.1.1-.2.2-.5.3-.9h-2v-.9z"/>
  </symbol>
</svg>
