<svg xmlns="http://www.w3.org/2000/svg">



  <!-- Social and contact Icons -->
  <symbol id="social__linkedin" viewBox="0 0 50 50">
    <title>Linkedin icon</title>
    <path d="M7.7 18.1h7.6v22.8H7.7zM34 17.5c-4 0-5.8 2.2-6.8 3.8v0-3.2h-7.6c.1 2.1 0 22.8 0 22.8h7.6V28.2c0-.7.1-1.4.3-1.9.5-1.4 1.8-2.8 3.9-2.8 2.7 0 3.8 2.1 3.8 5.2v12.2h7.6V27.8c-.1-7-3.8-10.3-8.8-10.3zM11.6 7.1C9 7.1 7.3 8.8 7.3 11s1.7 3.9 4.2 3.9h.1c2.6 0 4.3-1.8 4.3-3.9-.1-2.2-1.7-3.9-4.3-3.9z"/>
  </symbol>
  <symbol id="social__twitter" viewBox="0 0 50 50">
    <title>Twitter icon</title>
    <path d="M41.7 14.7c-1.2.5-2.5.9-3.9 1.1 1.4-.8 2.5-2.2 3-3.8-1.3.8-2.8 1.4-4.3 1.7-1.2-1.3-3-2.2-5-2.2-3.8 0-6.8 3.1-6.8 6.8 0 .5.1 1.1.2 1.6-5.7-.3-10.7-3-14.1-7.1-.6 1-.9 2.2-.9 3.4 0 2.4 1.2 4.5 3 5.7-1.1 0-2.2-.3-3.1-.9v.1c0 3.3 2.4 6.1 5.5 6.7-.7.1-1.3.2-1.9.2-.4 0-.9 0-1.3-.1.9 2.7 3.4 4.7 6.4 4.7-2.3 1.8-5.3 2.9-8.5 2.9-.6 0-1.1 0-1.6-.1 3 1.9 6.6 3.1 10.5 3.1 12.6 0 19.4-10.4 19.4-19.4v-.9c1.3-1 2.4-2.2 3.4-3.5z"/>
  </symbol>

  <symbol id="social__facebook" viewBox="0 0 50 50">
    <title>Facebook icon</title>
    <path d="M34.3 11H15.7c-2.6 0-4.7 2.1-4.7 4.7v18.6c0 2.6 2.1 4.7 4.7 4.7H25V28.5h-3.5v-4.3H25V22c0-3.1 2.4-5.7 5.2-5.7h3.5v4.3h-3.5c-.4 0-.9.6-.9 1.3v2.2h4.4v4.3h-4.4V39h5c2.6 0 4.7-2.1 4.7-4.7V15.7c0-2.6-2.1-4.7-4.7-4.7z"/>
  </symbol>

  <symbol id="social__email" viewBox="0 0 50 50">
    <title>Eamil icon</title>
    <path d="M37.6 15H12.4L25 23.5"/>
    <path d="M25 26.5L9.5 16.1V35h31V16.1"/>
  </symbol>
  <symbol id="social__personal-email" viewBox="0 0 50 50">
    <title>Personal email icon</title>
    <path d="M22 25.1c5.2 0 9.4-4.2 9.4-9.4S27.2 6.4 22 6.4s-9.4 4.2-9.4 9.4 4.3 9.3 9.4 9.3zM32 33.8l9.2-7.5H22.8"/>
    <path d="M32.8 36.4c-.2.2-.5.3-.8.3-.3 0-.6-.1-.8-.3l-10.7-8.8v13.2h22.9V27.7l-10.6 8.7zM12.1 23.2c-4.7 3.3-7.6 8.7-7.6 14.4 0 .7.6 1.2 1.2 1.2H18V26.3c-1.6-.6-3.1-1.6-4.3-2.9-.4-.5-1.1-.6-1.6-.2z"/>
  </symbol>

  <symbol id="social__phone" viewBox="0 0 50 50">
    <title>Phone icon</title>
    <path d="M25.1 32c-1.3-1.1-2.5-2.3-3.7-3.4-1.2-1.2-2.3-2.4-3.4-3.7-.9-1-1.1-2.5-.6-3.8l-8-8c-1.9 1.9-1.6 6.6.4 10.8.9 1.8 2 3.4 3.2 5 1.2 1.5 2.5 3 3.8 4.3 1.4 1.4 2.8 2.7 4.3 3.8 1.5 1.2 3.2 2.3 5 3.2 4.2 2 8.9 2.3 10.8.4l-8-8c-1.2.5-2.7.3-3.8-.6zM19.1 18.8l1.2-1.2 1.3-1.3c.5-.5.5-1.2 0-1.7l-6.1-6.1c-.3-.5-1.1-.5-1.5 0l-3 3 7.8 7.8c0-.2.2-.3.3-.5zM41.5 34.4l-6.1-6.1c-.5-.5-1.2-.5-1.7 0l-1.3 1.3-1.2 1.2c-.2.2-.3.3-.5.4l7.8 7.8 3-3c.5-.4.5-1.2 0-1.6z"/>
  </symbol>
  <symbol id="social__phone-secondary" viewBox="0 0 50 50">
    <title>Secondary Phone icon</title>
    <path d="M22.8 33.3c-1.3-1.1-2.5-2.3-3.7-3.4-1.2-1.2-2.3-2.4-3.4-3.7-.9-1-1.1-2.5-.6-3.8l-8-8c-1.8 1.9-1.6 6.6.4 10.8.9 1.8 2 3.4 3.2 5 1.2 1.5 2.5 3 3.8 4.3 1.4 1.4 2.8 2.7 4.3 3.8 1.5 1.2 3.2 2.3 5 3.2 4.2 2 8.9 2.3 10.8.4l-8-8c-1.2.5-2.7.3-3.8-.6zM16.8 20.1l1.2-1.2 1.3-1.3c.5-.5.5-1.2 0-1.7l-6.1-6.1c-.5-.5-1.2-.5-1.7 0l-3 3 7.8 7.8c.3-.2.4-.3.5-.5zM39.2 35.7l-6.1-6.1c-.5-.5-1.2-.5-1.7 0l-1.3 1.3-1.2 1.2c-.2.2-.3.3-.5.4l7.8 7.8 3-3c.5-.4.5-1.2 0-1.6zM35.9 14l-4.4 5.1h7.8v-1.2h-5.1l2.5-2.8c.5-.6 1.1-1.3 1.6-2 .7-1 1-1.8 1-2.6 0-2.1-1.6-3.6-3.7-3.6-1.5 0-2.3.6-2.8 1.2-.5.5-.8 1.3-.9 2.5h1.3c0-.6.2-1.1.4-1.4.5-.7 1.2-1.1 2-1.1 1.4 0 2.4 1 2.4 2.3 0 .5-.1 1.1-.7 1.8-.3.5-1.1 1.5-1.4 1.8z"/>
  </symbol>

  <symbol id="social__chat" viewBox="0 0 50 50">
    <title>Chat icon</title>
    <path d="M25 15.4c-6.1 0-11 3.9-11 8.7 0 2.5 1.4 4.8 3.6 6.4l-1.3 4.3 8.7-2c6.1 0 11-3.9 11-8.7s-4.9-8.7-11-8.7z"/>
  </symbol>



  <!-- Application Icons -->
  <symbol id="app__calendar" viewBox="0 0 50 50">
    <title>Calendar icon</title>
    <circle cx="17.1" cy="25.7" r="2.1"/>
    <circle cx="25" cy="25.7" r="2.1"/>
    <circle cx="32.9" cy="25.7" r="2.1"/>
    <circle cx="17.1" cy="32.4" r="2.1"/>
    <circle cx="25" cy="32.4" r="2.1"/>
    <circle cx="32.9" cy="32.4" r="2.1"/>
    <path d="M37.9 11.3h-1.3V15c0 1.7-1.3 3-3 3s-3-1.3-3-3v-3.7H19.3V15c0 1.7-1.3 3-3 3s-3-1.3-3-3v-3.7H12c-1.7 0-3 1.3-3 3V38.6c0 .6.4 1 1 1h29.9c.6 0 1-.4 1-1V14.3c0-1.7-1.3-3-3-3zm.5 25.7H11.6V20.9h26.9V37z"/>
    <path d="M33.7 16.3c.7 0 1.2-.6 1.2-1.2v-4.4c0-.7-.6-1.2-1.2-1.2s-1.2.6-1.2 1.2V15c-.1.7.5 1.3 1.2 1.3zM16.3 16.3c-.7 0-1.2-.6-1.2-1.2v-4.4c0-.7.6-1.2 1.2-1.2.7 0 1.2.6 1.2 1.2V15c.1.7-.5 1.3-1.2 1.3z"/>
  </symbol>

  <symbol id="app__settings" viewBox="0 0 50 50">
    <title>Settings icon</title>
    <path d="M37.7 22.4c-.3-1.8-1-3.5-2.1-5l1.2-1.4c.4-.5.4-1.2-.1-1.6L35.3 13c-.4-.4-1.1-.5-1.6-.1l-1.4 1.2c-1.5-1-3.2-1.7-5-2.1l-.1-1.8c0-.6-.6-1.1-1.2-1.1h-2c-.6 0-1.1.5-1.2 1.1l-.1 1.8c-1.8.3-3.5 1-5 2.1l-1.4-1.2c-.5-.4-1.2-.4-1.6.1l-1.4 1.4c-.4.4-.5 1.1-.1 1.6l1.2 1.4c-1 1.5-1.7 3.2-2.1 5l-1.8.1c-.6 0-1.1.6-1.1 1.2v2c0 .6.5 1.1 1.1 1.2l1.8.1c.3 1.8 1 3.5 2.1 5l-1.2 1.4c-.4.5-.4 1.2.1 1.6l1.4 1.4c.4.4 1.1.5 1.6.1l1.4-1.2c1.5 1 3.2 1.7 5 2.1l.1 1.8c0 .6.6 1.1 1.2 1.1h2c.6 0 1.1-.5 1.2-1.1l.1-1.8c1.8-.3 3.5-1 5-2.1l1.4 1.2c.5.4 1.2.4 1.6-.1l1.4-1.4c.4-.4.5-1.1.1-1.6L35.6 32c1-1.5 1.7-3.2 2.1-5l1.8-.1c.6 0 1.1-.6 1.1-1.2v-2c0-.6-.5-1.1-1.1-1.2l-1.8-.1zm-6.2 2.3c0 3.6-2.9 6.5-6.5 6.5s-6.5-2.9-6.5-6.5 2.9-6.5 6.5-6.5 6.5 2.9 6.5 6.5z"/>
  </symbol>

  <symbol id="app__lock" viewBox="0 0 50 50">
    <title>Lock icon</title>
    <path d="M38.6 22.3c-1-.4-2-.8-3-1.1v-5c0-6.9-4.3-11.3-10.9-11.3S13.9 9.3 13.9 16.2v5.1c-.9.3-1.7.6-2.5 1-.5.2-.8.6-.8 1.1v15.8c0 .5.3 1 .8 1.1 4.3 1.9 8.9 2.8 13.6 2.8s9.3-.9 13.6-2.8c.5-.2.8-.6.8-1.1V23.5c0-.5-.3-1-.8-1.2zm-20.7-2v-4c0-6.6 4.8-7.3 6.9-7.3s6.9.7 6.9 7.3v4c-2.2-.4-4.4-.7-6.6-.7-2.5-.1-4.9.2-7.2.7z"/>
  </symbol>

  <symbol id="app__notifications" viewBox="0 0 50 50">
    <title>Notifications icon</title>
    <path d="M40.4 34.7l-4-7.9v-7.9c0-6.3-5.1-11.5-11.5-11.5s-11.5 5.1-11.5 11.5v7.9l-4 7.9c-.2.4-.2.8.1 1.2.2.4.6.6 1.1.6h7.6c.6 3.1 3.3 5.5 6.7 5.5s6.1-2.4 6.7-5.5h7.6c.4 0 .8-.2 1.1-.6.3-.4.3-.8.1-1.2zM19.1 21.1c-.7 0-1.2-.6-1.2-1.2 0-4.2 3.2-7.6 7.1-7.6.7 0 1.2.6 1.2 1.2s-.6 1.2-1.2 1.2c-2.6 0-4.6 2.3-4.6 5.1 0 .8-.6 1.3-1.3 1.3zM25 39.5c-1.9 0-3.5-1.3-4.1-3H29c-.5 1.7-2.1 3-4 3z"/>
  </symbol>

  <symbol id="app__search" viewBox="0 0 50 50">
    <title>Search icon</title>
    <path d="M30.1 11.7c-4.6 0-8.3 3.7-8.3 8.3 0 .7.6 1.2 1.2 1.2s1.2-.6 1.2-1.2c0-3.2 2.6-5.8 5.8-5.8.7 0 1.2-.6 1.2-1.2s-.4-1.3-1.1-1.3z"/>
    <path d="M30.1 7.4c-7 0-12.6 5.7-12.6 12.6 0 2.3.6 4.5 1.7 6.3-.7.2-1.3.5-1.8 1L7.6 37c-1.5 1.5-1.5 3.8 0 5.3.7.7 1.7 1.1 2.7 1.1s1.9-.4 2.7-1.1l9.8-9.8c.5-.5.8-1.1 1-1.8 1.9 1.1 4.1 1.8 6.4 1.8 6.9 0 12.6-5.7 12.6-12.6C42.7 13 37 7.4 30.1 7.4zm0 22.7C24.5 30.1 20 25.5 20 20c0-5.6 4.5-10.1 10.1-10.1S40.2 14.4 40.2 20c0 5.5-4.5 10.1-10.1 10.1z"/>
  </symbol>

  <symbol id="app__info" viewBox="0 0 50 50">
    <title>Info icon</title>
    <path d="M28 6.9c2.5 0 3.8 1.7 3.8 3.7 0 2.5-2.2 4.8-5.1 4.8-2.4 0-3.8-1.4-3.8-3.8.1-1.9 1.7-4.7 5.1-4.7zm-7.3 35.6c-2 0-3.5-1.2-2.1-6.7l2.3-9.7c.4-1.6.5-2.2 0-2.2-.6 0-3.2 1.1-4.8 2.1l-1-1.7c4.9-4.2 10.5-6.6 12.9-6.6 2 0 2.3 2.4 1.3 6.1L26.7 34c-.5 1.8-.3 2.4.2 2.4.6 0 2.6-.7 4.5-2.3l1.1 1.6c-4.6 5-9.8 6.8-11.8 6.8z"/>
  </symbol>

  <symbol id="app__logout" viewBox="0 0 50 50">
    <title>Logout icon</title>
    <path d="M29.2 37.8H15c-.7 0-1.2-.6-1.2-1.2V13.5c0-.7.6-1.2 1.2-1.2h14.2c.7 0 1.2.6 1.2 1.2s-.6 1.2-1.2 1.2h-13v20.6h12.9c.7 0 1.2.6 1.2 1.2s-.4 1.3-1.1 1.3z"/>
    <path d="M38.9 24.1l-5.2-5.2c-.5-.5-1.3-.5-1.8 0s-.5 1.3 0 1.8l3.1 3.1H23.3c-.7 0-1.2.6-1.2 1.2s.6 1.2 1.2 1.2H35l-3 3.1c-.5.5-.5 1.3 0 1.8.2.2.6.4.9.4s.6-.1.9-.4l5.2-5.2c.4-.5.4-1.3-.1-1.8z"/>
  </symbol>

  <symbol id="app__arrow" viewBox="0 0 50 50">
    <title>Arrow icon</title>
    <path d="M19.9 37.8c-.3 0-.6-.1-.9-.4-.5-.5-.5-1.3 0-1.8L29.6 25 19.1 14.5c-.5-.5-.5-1.3 0-1.8s1.3-.5 1.8 0l11.4 11.4c.5.5.5 1.3 0 1.8L20.8 37.4c-.2.3-.5.4-.9.4z"/>
  </symbol>

  <symbol id="app__arrow-success" viewBox="0 0 50 50">
    <title>Action status</title>
    <path class="action--next" d="M19.9 37.8c-.3 0-.6-.1-.9-.4-.5-.5-.5-1.3 0-1.8L29.6 25 19.1 14.5c-.5-.5-.5-1.3 0-1.8s1.3-.5 1.8 0l11.4 11.4c.5.5.5 1.3 0 1.8L20.8 37.4c-.2.3-.5.4-.9.4z"/>

    <path class="action--success" d="M25 7.2c-9.8 0-17.8 8-17.8 17.8s8 17.8 17.8 17.8 17.8-8 17.8-17.8S34.8 7.2 25 7.2zm9.1 11.5L24.5 32c-.2.3-.5.4-.8.5h-.2c-.3 0-.5-.1-.7-.2l-6.7-4.8c-.6-.4-.7-1.2-.3-1.7.4-.6 1.2-.7 1.7-.3l5.7 4.1 8.9-12.3c.4-.6 1.2-.7 1.7-.3.6.4.7 1.2.3 1.7z"/>
  </symbol>

  <symbol id="app__edit" viewBox="0 0 50 50">
    <title>Edit icon</title>
    <path d="M35 36H15c-.7 0-1.2.6-1.2 1.2s.6 1.2 1.2 1.2h20c.7 0 1.2-.6 1.2-1.2S35.7 36 35 36zM15 34.1h4.3c.3 0 .6-.1.9-.4L35.9 18c.5-.5.5-1.3 0-1.8L31.6 12c-.5-.5-1.3-.5-1.8 0L14.1 27.7c-.2.2-.4.6-.4.9v4.3c0 .7.6 1.2 1.3 1.2zm2.1-7.6l4.3 4.3-1.8 1.8-4.3-4.3 1.8-1.8z"/>
  </symbol>

  <symbol id="app__add" viewBox="0 0 50 50">
    <title>Add icon</title>
    <path d="M25 7.2c-9.8 0-17.8 8-17.8 17.8s8 17.8 17.8 17.8 17.8-8 17.8-17.8S34.8 7.2 25 7.2zm8.8 19h-7.6v7.6c0 .7-.6 1.2-1.2 1.2s-1.2-.6-1.2-1.2v-7.6h-7.6c-.7 0-1.2-.6-1.2-1.2s.6-1.2 1.2-1.2h7.6v-7.6c0-.7.6-1.2 1.2-1.2s1.2.6 1.2 1.2v7.6h7.6c.7 0 1.2.6 1.2 1.2s-.5 1.2-1.2 1.2z"/>
  </symbol>

  <symbol id="app__close" viewBox="0 0 50 50">
    <title>Close icon</title>
    <path d="M26.8 25l7.8-7.8c.5-.5.5-1.3 0-1.8s-1.3-.5-1.8 0L25 23.2l-7.8-7.8c-.5-.5-1.3-.5-1.8 0s-.5 1.3 0 1.8l7.8 7.8-7.8 7.8c-.5.5-.5 1.3 0 1.8.2.2.6.4.9.4s.6-.1.9-.4l7.8-7.8 7.8 7.8c.2.2.6.4.9.4s.6-.1.9-.4c.5-.5.5-1.3 0-1.8L26.8 25z"/>
  </symbol>

  <symbol id="app__warning" viewBox="0 0 50 50">
    <title>Warning icon</title>
    <path d="M40.8 15.1L25.7 6.4c-.4-.2-.9-.2-1.2 0L9.3 15.1c-.4.2-.6.6-.6 1.1v17.5c0 .4.2.9.6 1.1l15.2 8.8c.2.1.4.2.6.2s.4-.1.6-.2l15.2-8.8c.4-.2.6-.6.6-1.1V16.2c0-.4-.3-.9-.7-1.1zM25 35.1c-1.2 0-2.1-.9-2.1-2.1 0-1.2.9-2.1 2.1-2.1s2.1.9 2.1 2.1c0 1.2-.9 2.1-2.1 2.1zm1.3-7.1c0 .7-.6 1.3-1.3 1.3s-1.3-.6-1.3-1.3l-.9-10.5c0-1.2 1-2.2 2.2-2.2 1.2 0 2.2 1 2.2 2.2L26.3 28z"/>
  </symbol>

  <symbol id="app__success" viewBox="0 0 50 50">
    <title>Success icon</title>
    <path d="M25 7.2c-9.8 0-17.8 8-17.8 17.8s8 17.8 17.8 17.8 17.8-8 17.8-17.8S34.8 7.2 25 7.2zm9.1 11.5L24.5 32c-.2.3-.5.4-.8.5h-.2c-.3 0-.5-.1-.7-.2l-6.7-4.8c-.6-.4-.7-1.2-.3-1.7.4-.6 1.2-.7 1.7-.3l5.7 4.1 8.9-12.3c.4-.6 1.2-.7 1.7-.3.6.4.7 1.2.3 1.7z"/>
  </symbol>

  <symbol id="app__delete" viewBox="0 0 50 50">
    <title>Delete icon</title>
    <path d="M14.6 40.2c.2 1.4 1.4 2.5 2.8 2.5h15.2c1.4 0 2.7-1.1 2.8-2.5l2.3-20.3H12.3l2.3 20.3zM37.7 12.3h-5.1l-1.9-5.1H19.3l-1.9 5.1h-5.1c-2.5 0-2.5 5.1-2.5 5.1h30.5c-.1 0-.1-5.1-2.6-5.1zm-17.8 0l1.3-2.5h7.6l1.3 2.5H19.9z"/>
  </symbol>

  <symbol id="app__history" viewBox="0 0 50 50">
    <title>History icon</title>
    <path class="icon-spin" d="M30.9 8.1c-8.1-2.7-16.7.8-20.9 7.8l-.7-1.8c-.3-.8-1.2-1.2-2.1-.9-.8.3-1.2 1.2-.9 2.1l2.1 5.3c.2.6.8 1 1.5 1 .2 0 .4 0 .6-.1l5.2-2c.8-.3 1.2-1.2.9-2.1-.3-.8-1.2-1.2-2.1-.9l-1.4.5c3.5-5.4 10.3-8 16.7-5.8 7.6 2.5 11.8 10.7 9.3 18.4-2.5 7.6-10.7 11.8-18.4 9.3-3.6-1.2-6.5-3.7-8.3-7-.4-.9-1.4-1.2-2.2-.8-.8.4-1.1 1.4-.7 2.2 2.2 4.1 5.8 7.2 10.2 8.6 1.8.6 3.7.9 5.6.9 7.5 0 14.5-4.8 16.9-12.2 3.1-9.4-2-19.4-11.3-22.5z"/>
    <path d="M17.3 33.4c.3.3.7.5 1.1.5s.8-.2 1.1-.5l5.2-5.2c.3.1.6.1.9.1 1.8 0 3.3-1.5 3.3-3.3 0-1.2-.7-2.3-1.7-2.9v-7.4c0-.9-.7-1.6-1.6-1.6s-1.6.7-1.6 1.6v7.4c-1 .6-1.7 1.6-1.7 2.9 0 .3.1.6.1.9l-5.2 5.2c-.5.7-.5 1.6.1 2.3z"/>
  </symbol>


  <symbol id="app__doc-upload" viewBox="0 0 50 50">
    <title>Document Upload icon</title>
    <path d="M19.2 6.8l-7.8 8.3h7.8"/>
    <path d="M38 6.1H21.7v10.3c0 .7-.6 1.2-1.2 1.2h-9.7V43c0 .7.6 1.2 1.2 1.2h26c.7 0 1.2-.6 1.2-1.2V7.3c.1-.6-.5-1.2-1.2-1.2zM30.1 28c-.5.4-1.3.4-1.8-.2l-1.9-2.3V34c0 .7-.6 1.2-1.2 1.2S24 34.6 24 34v-8.5l-1.9 2.3c-.4.5-1.2.6-1.8.2-.5-.4-.6-1.2-.2-1.8l4.1-5c.2-.3.6-.4 1-.4s.7.2 1 .4l4.1 5c.4.6.3 1.4-.2 1.8z"/>
  </symbol>

  <symbol id="app__doc-success" viewBox="0 0 50 50">
    <title>Document Success icon</title>
    <path d="M19.2 6.8l-7.8 8.3h7.8"/>
    <path d="M38 6.1H21.7v10.3c0 .7-.6 1.2-1.2 1.2h-9.7V43c0 .7.6 1.2 1.2 1.2h26c.7 0 1.2-.6 1.2-1.2V7.3c.1-.6-.5-1.2-1.2-1.2zm-5.2 16.8l-8 11.1c-.2.3-.5.4-.8.5h-.2c-.3 0-.5-.1-.7-.2l-5.5-4c-.6-.4-.7-1.2-.3-1.7.4-.6 1.2-.7 1.7-.3l4.5 3.3 7.3-10.1c.4-.6 1.2-.7 1.7-.3s.7 1.1.3 1.7z"/>
  </symbol>

  <symbol id="app__doc-error" viewBox="0 0 50 50">
    <title>Document Error icon</title>
    <path d="M19.2 6.8l-7.8 8.3h7.8"/>
    <path d="M38 6.1H21.7v10.3c0 .7-.6 1.2-1.2 1.2h-9.7V43c0 .7.6 1.2 1.2 1.2h26c.7 0 1.2-.6 1.2-1.2V7.3c.1-.6-.5-1.2-1.2-1.2zm-6.8 27.6c.5.5.5 1.3 0 1.8-.2.2-.6.4-.9.4s-.6-.1-.9-.4l-4.3-4.3-4.3 4.3c-.2.2-.6.4-.9.4s-.6-.1-.9-.4c-.5-.5-.5-1.3 0-1.8l4.3-4.3L19 25c-.5-.5-.5-1.3 0-1.8s1.3-.5 1.8 0l4.3 4.3 4.3-4.3c.5-.5 1.3-.5 1.8 0s.5 1.3 0 1.8l-4.3 4.3 4.3 4.4z"/>
  </symbol>

  <symbol id="app__doc-download" viewBox="0 0 50 50">
    <title>Document Download icon</title>
    <path d="M19.2 6.8l-7.8 8.3h7.8"/>
    <path d="M38 6.1H21.7v10.3c0 .7-.6 1.2-1.2 1.2h-9.7V43c0 .7.6 1.2 1.2 1.2h26c.7 0 1.2-.6 1.2-1.2V7.3c.1-.6-.5-1.2-1.2-1.2zm-7.8 23.8l-4.1 5c-.2.3-.6.4-1 .4s-.7-.2-1-.4l-4.1-5c-.4-.5-.4-1.3.2-1.8.5-.4 1.3-.4 1.8.2l1.9 2.3v-8.5c0-.7.6-1.2 1.2-1.2s1.2.6 1.2 1.2v8.5l1.9-2.3c.4-.5 1.2-.6 1.8-.2.6.5.7 1.3.2 1.8z"/>
  </symbol>

  <symbol id="app__doc-remote" viewBox="0 0 50 50">
    <title>Remote Document icon</title>
    <path d="M19.2 6.8l-7.8 8.3h7.8"/>
    <path d="M38 6.1H21.7v10.3c0 .7-.6 1.2-1.2 1.2h-9.7V43c0 .7.6 1.2 1.2 1.2h26c.7 0 1.2-.6 1.2-1.2V7.3c.1-.6-.5-1.2-1.2-1.2zm-11.6 27l-3.6 3.6c-.4.4-1 .4-1.4 0l-4.3-4.3c-.4-.4-.4-1 0-1.4l3.6-3.6c.4-.4 1-.4 1.4 0l.7.7-3.6 3.6 2.9 2.9 3.6-3.6.7.7c.4.4.4 1 0 1.4zm0-7.1c.4-.4 1-.4 1.4 0 .4.4.4 1 0 1.4l-4.3 4.3c-.4.4-1 .4-1.4 0-.4-.4-.4-1 0-1.4l4.3-4.3zm6.5.7l-3.6 3.6c-.4.4-1 .4-1.4 0l-.7-.7 3.6-3.6-2.9-2.9-3.6 3.6-.7-.7c-.4-.4-.4-1 0-1.4l3.6-3.6c.4-.4 1-.4 1.4 0l4.3 4.3c.4.3.4 1 0 1.4z"/>
  </symbol>

  <symbol id="app__doc-google-drive" viewBox="0 0 50 50">
    <title>Google Drive Document icon</title>
    <path d="M19.2 6.8l-7.8 8.3h7.8"/>
    <path d="M38 6.1H21.7v10.3c0 .7-.6 1.2-1.2 1.2h-9.7V43c0 .7.6 1.2 1.2 1.2h26c.7 0 1.2-.6 1.2-1.2V7.3c.1-.6-.5-1.2-1.2-1.2zM17.1 30.9l5-8.5 2.7 4.5-5 8.5-2.7-4.5zm13.2 4.7h-10l2.6-4.5h10l-2.6 4.5zm-2.6-5l-5-8.5h5.2l5 8.5h-5.2z"/>
  </symbol>

  <symbol id="app__doc-dropbox" viewBox="0 0 50 50">
    <title>Dropbox Document icon</title>
    <path d="M19.2 6.8l-7.8 8.3h7.8"/>
    <path d="M38 6.1H21.7v10.3c0 .7-.6 1.2-1.2 1.2h-9.7V43c0 .7.6 1.2 1.2 1.2h26c.7 0 1.2-.6 1.2-1.2V7.3c.1-.6-.5-1.2-1.2-1.2zm-8.3 28L25 36.9l-4.7-2.8v-1l1.4.9 3.3-2.7 3.3 2.7 1.4-.9v1zm3.3-3.7l-4.7 3.1-3.3-2.8-3.3 2.7-4.7-3 3.2-2.6-3.2-2.6 4.7-3.1 3.3 2.7 3.3-2.7 4.7 3.1-3.2 2.6 3.2 2.6z"/>
    <path d="M20.3 27.8l4.7 2.9 4.7-2.9-4.7-3"/>
  </symbol>

  <symbol id="app__missing-icon" viewBox="0 0 50 50">
    <title>This icon is missing! :(</title>
    <path d="M26.8 19.2l7.8-7.8c.5-.5.5-1.3 0-1.8s-1.3-.5-1.8 0L25 17.4l-7.8-7.8c-.5-.5-1.3-.5-1.8 0s-.5 1.3 0 1.8l7.8 7.8-7.8 7.8c-.5.5-.5 1.3 0 1.8.2.2.6.4.9.4s.6-.1.9-.4L25 21l7.8 7.8c.2.2.6.4.9.4s.6-.1.9-.4c.5-.5.5-1.3 0-1.8l-7.8-7.8zM6.2 40.9l1.1-7 2.6 5.6 2.6-5.6 1 7h-.8l-.6-4.6-2.3 4.9-2.2-4.9-.7 4.6h-.7zM15.8 34.2v6.7H15v-6.7h.8zM20.5 35.5c-.1-.2-.2-.4-.4-.5-.1-.1-.4-.2-.8-.2-.7 0-1.1.4-1.1 1 0 .3.1.4.2.6.2.2.4.3.7.4l.6.3c.4.2.8.4 1 .6.3.3.5.7.5 1.2 0 1.2-.9 2-2.1 2-.4 0-1-.1-1.4-.5-.3-.3-.5-.8-.6-1.2l.7-.2c0 .3.2.6.4.8.3.3.6.4 1 .4.9 0 1.3-.6 1.3-1.3 0-.3-.1-.6-.3-.8-.2-.2-.4-.3-.8-.5l-.6-.3c-.3-.1-.6-.3-.9-.5-.3-.3-.5-.6-.5-1.1 0-1 .8-1.7 1.9-1.7.4 0 .7.1 1.1.3.3.2.5.4.6.7l-.5.5zM25.4 35.5c-.1-.2-.2-.4-.4-.5-.1-.1-.4-.2-.8-.2-.7 0-1.1.4-1.1 1 0 .3.1.4.2.6.2.2.4.3.7.4l.6.3c.4.2.8.4 1 .6.3.3.5.7.5 1.2 0 1.2-.9 2-2.1 2-.4 0-1-.1-1.4-.5-.3-.3-.5-.8-.6-1.2l.7-.2c0 .3.2.6.4.8.3.3.6.4 1 .4.9 0 1.3-.6 1.3-1.3 0-.3-.1-.6-.3-.8-.2-.2-.4-.3-.8-.5l-.6-.3c-.3-.1-.6-.3-.9-.5-.3-.3-.5-.6-.5-1.1 0-1 .8-1.7 1.9-1.7.4 0 .7.1 1.1.3.3.2.5.4.6.7l-.5.5zM28.4 34.2v6.7h-.7v-6.7h.7zM30.1 40.9V34l5.2 5.4v-5.2h.7v7l-5.2-5.4v5.1h-.7zM41.2 37.5H44v.2c0 .7-.2 1.5-.6 2.1-.2.3-.9 1.2-2.5 1.2-2 0-3.5-1.5-3.5-3.4s1.5-3.4 3.5-3.4c.6 0 1.4.2 2 .7.3.2.6.5.8.8l-.5.5c-.2-.3-.4-.5-.6-.7-.3-.3-.8-.6-1.6-.6-1.6 0-2.7 1.2-2.7 2.8 0 1.8 1.4 2.7 2.7 2.7.9 0 1.7-.4 2-1.1.1-.2.2-.5.3-.9h-2v-.9z"/>
  </symbol>



  <symbol id="anim__status" viewBox="0 0 50 50">
    <title>Current Status icon</title>
    <path class="icon-status__success" d="M25 7.2c-9.8 0-17.8 8-17.8 17.8s8 17.8 17.8 17.8 17.8-8 17.8-17.8S34.8 7.2 25 7.2zm9.1 11.5L24.5 32c-.2.3-.5.4-.8.5h-.2c-.3 0-.5-.1-.7-.2l-6.7-4.8c-.6-.4-.7-1.2-.3-1.7.4-.6 1.2-.7 1.7-.3l5.7 4.1 8.9-12.3c.4-.6 1.2-.7 1.7-.3.6.4.7 1.2.3 1.7z"/>

    <path class="icon-status__denied" d="M26.8 25l7.8-7.8c.5-.5.5-1.3 0-1.8s-1.3-.5-1.8 0L25 23.2l-7.8-7.8c-.5-.5-1.3-.5-1.8 0s-.5 1.3 0 1.8l7.8 7.8-7.8 7.8c-.5.5-.5 1.3 0 1.8.2.2.6.4.9.4s.6-.1.9-.4l7.8-7.8 7.8 7.8c.2.2.6.4.9.4s.6-.1.9-.4c.5-.5.5-1.3 0-1.8L26.8 25z"/>

    <path class="icon-status__pending" d="M25 3.6C13.2 3.6 3.6 13.2 3.6 25c0 11.8 9.6 21.4 21.4 21.4 11.8 0 21.4-9.6 21.4-21.4 0-11.8-9.6-21.4-21.4-21.4zm2.3 6.8c2.1 0 3.1 1.4 3.1 3.1 0 2-1.8 3.9-4.2 3.9-2 0-3.1-1.2-3.1-3.1 0-1.6 1.4-3.9 4.2-3.9zm-6.1 29.2c-1.7 0-2.9-1-1.7-5.5l1.9-8c.3-1.3.4-1.8 0-1.8-.5 0-2.6.9-3.9 1.7l-.8-1.4c4-3.4 8.6-5.4 10.6-5.4 1.7 0 1.9 2 1.1 5l-2.2 8.4c-.4 1.5-.2 2 .2 2 .5 0 2.1-.6 3.7-1.9L31 34c-3.8 4.1-8.1 5.6-9.8 5.6z"/>
  </symbol>




  <!-- Member Icons -->
  <symbol id="member__add" viewBox="0 0 50 50">
    <title>Add Member Icon</title>
    <path d="M22.2 6.1c-5.2 0-9.4 4.2-9.4 9.4s4.2 9.4 9.4 9.4 9.4-4.2 9.4-9.4-4.3-9.4-9.4-9.4zM21.7 33.8c0-2.7.8-5.1 2.3-7.2-3.7.6-7.6-.7-10.1-3.5-.4-.5-1.1-.5-1.6-.2-4.7 3.3-7.6 8.7-7.6 14.4 0 .7.6 1.2 1.2 1.2h16.8c-.6-1.4-1-3-1-4.7z"/>
    <path class="icon__highlight" d="M34.3 23.6c-5.6 0-10.1 4.5-10.1 10.1s4.5 10.1 10.1 10.1 10.1-4.5 10.1-10.1-4.5-10.1-10.1-10.1zM39.9 35h-4.3v4.3c0 .7-.6 1.2-1.2 1.2s-1.2-.6-1.2-1.2V35h-4.3c-.7 0-1.2-.6-1.2-1.2s.6-1.2 1.2-1.2h4.3v-4.3c0-.7.6-1.2 1.2-1.2s1.2.6 1.2 1.2v4.3h4.3c.7 0 1.2.6 1.2 1.2s-.5 1.2-1.2 1.2z"/>
  </symbol>

  <symbol id="member__edit" viewBox="0 0 50 50">
    <title>Edit Member Icon</title>
    <path d="M35 36H15c-.7 0-1.2.6-1.2 1.2s.6 1.2 1.2 1.2h20c.7 0 1.2-.6 1.2-1.2S35.7 36 35 36zM15 34.1h4.3c.3 0 .6-.1.9-.4L35.9 18c.5-.5.5-1.3 0-1.8L31.6 12c-.5-.5-1.3-.5-1.8 0L14.1 27.7c-.2.2-.4.6-.4.9v4.3c0 .7.6 1.2 1.3 1.2zm2.1-7.6l4.3 4.3-1.8 1.8-4.3-4.3 1.8-1.8z"/>
  </symbol>

  <symbol id="member__teammember" viewBox="0 0 50 50">
    <title>Team Member Icon</title>
    <path d="M25 26c5.2 0 9.4-4.2 9.4-9.4S30.2 7.2 25 7.2s-9.4 4.2-9.4 9.4S19.8 26 25 26z"/>
    <path d="M34.9 24c-.5-.4-1.2-.3-1.6.2-2.1 2.3-5.1 3.7-8.3 3.7s-6.1-1.3-8.3-3.7c-.4-.5-1.1-.5-1.6-.2-4.7 3.3-7.6 8.7-7.6 14.4 0 .7.6 1.2 1.2 1.2h32.5c.7 0 1.2-.6 1.2-1.2.1-5.8-2.7-11.1-7.5-14.4z"/>
  </symbol>

  <symbol id="member__teamleader" viewBox="0 0 50 50">
    <title>Team Leader Icon</title>
    <path d="M25 26c5.2 0 9.4-4.2 9.4-9.4S30.2 7.2 25 7.2s-9.4 4.2-9.4 9.4S19.8 26 25 26zM23.1 28.9c.1-.4.4-.8.7-1.1-2.7-.3-5.2-1.6-7.1-3.6-.4-.5-1.1-.5-1.6-.2-4.7 3.3-7.6 8.7-7.6 14.4 0 .7.6 1.2 1.2 1.2H27l.7-4-3.5-3.4c-1.1-.9-1.4-2.2-1.1-3.3z"/>
    <path d="M45.4 28.7l-5.8-.8-2.6-5.3c-.3-.6-.7-.9-1.1-.9-.4 0-.8.3-1.1.9l-2.6 5.3-5.8.8c-1.4.2-1.7 1.2-.7 2.1l4.2 4.1-1 5.8c-.2 1 .2 1.6.9 1.6.3 0 .6-.1.9-.3l5.2-2.7 5.2 2.7c.3.2.7.3.9.3.7 0 1.1-.6.9-1.6l-1-5.8 4.2-4.1c1-.9.7-1.9-.7-2.1z"/>
  </symbol>

  <symbol id="member__admin" viewBox="0 0 50 50">
    <title>Company Admin Icon</title>
    <path d="M22 6c-5.2 0-9.4 4.2-9.4 9.4s4.2 9.4 9.4 9.4 9.4-4.2 9.4-9.4S27.2 6 22 6z"/>
    <path d="M24.1 29.4c.1-.1.1-.2.2-.4-.6-.7-.8-1.8-.4-2.6-.6.1-1.2.2-1.9.2-3.1 0-6.1-1.3-8.3-3.7-.4-.5-1.1-.5-1.6-.2-4.7 3.3-7.6 8.7-7.6 14.5 0 .7.6 1.2 1.2 1.2h18c.1-.4.3-.8.5-1.1 0-.1-.1-.2-.1-.3-1.3-.1-2.3-1.2-2.3-2.5V32c0-1.4 1-2.5 2.3-2.6z"/>
    <path d="M41.5 31.8c-.2-1.1-.6-2.1-1.3-3l1.2-1.3-1.8-1.8-1.3 1.2c-.9-.6-1.9-1-3-1.3l-.1-1.8h-2.5l-.1 1.8c-1.1.2-2.1.6-3 1.3L28 25.6l-1.8 1.8 1.2 1.3c-.6.9-1 1.9-1.3 3l-1.8.1v2.5l1.8.1c.2 1.1.6 2.1 1.3 3L26.2 39l1.8 1.8 1.3-1.2c.9.6 1.9 1 3 1.3l.1 1.8h2.5l.1-1.8c1.1-.2 2.1-.6 3-1.3l1.3 1.2 1.8-1.8-1.2-1.3c.6-.9 1-1.9 1.3-3l1.8-.1v-2.5l-1.5-.3zm-3.8 1.4c0 2.2-1.8 3.9-3.9 3.9s-3.9-1.8-3.9-3.9c0-2.2 1.8-3.9 3.9-3.9s3.9 1.7 3.9 3.9z"/>
  </symbol>

  <symbol id="member__companyleader" viewBox="0 0 50 50">
    <title>Company Leader Icon</title>
    <path d="M16.8 39.6c-1.9 1-3.2.1-2.8-2.1l1.6-9.1L8.9 22c-1.6-1.5-1.1-3 1.1-3.3l9.1-1.3L23.2 9c1-2 2.5-2 3.5 0l4.1 8.3 9.1 1.3c2.2.3 2.7 1.8 1.1 3.3l-6.6 6.4 1.6 9.1c.4 2.2-.9 3.1-2.8 2.1L25 35.3l-8.2 4.3z"/>
  </symbol>

  <symbol id="member__accountant" viewBox="0 0 50 50">
    <title>Accountant Icon</title>
    <path d="M27.2 36.3v2.4c0 .2-.1.4-.2.6-.2.2-.3.2-.6.2H24c-.2 0-.4-.1-.6-.2-.2-.2-.2-.3-.2-.6v-2.4c0-.2.1-.4.2-.6.2-.2.4-.2.6-.2h2.4c.2 0 .4.1.6.2.1.2.2.4.2.6zm-.8-8.1c.2 0 .4.1.6.2.2.2.2.4.2.6v2.4c0 .2-.1.4-.2.6-.2.2-.3.2-.6.2H24c-.2 0-.4-.1-.6-.2-.2-.2-.2-.3-.2-.6V29c0-.2.1-.4.2-.6.2-.2.4-.2.6-.2h2.4m7.8 0c.2 0 .3.1.4.2.1.1.2.3.2.4V39c0 .2-.1.3-.2.4-.1.1-.3.2-.4.2h-2.9c-.2 0-.3-.1-.4-.2-.1-.1-.2-.3-.2-.4V28.8c0-.2.1-.3.2-.4.1-.1.3-.2.4-.2h2.9m-15.7 7.3c.2 0 .4.1.6.2.2.2.2.3.2.6v2.4c0 .2-.1.4-.2.6-.2.2-.3.2-.6.2H16c-.2 0-.4-.1-.6-.2-.2-.2-.2-.3-.2-.6v-2.4c0-.2.1-.4.2-.6.2-.2.4-.2.6-.2h2.5m0-7.3c.2 0 .4.1.6.2.2.2.2.4.2.6v2.4c0 .2-.1.4-.2.6-.2.2-.3.2-.6.2H16c-.2 0-.4-.1-.6-.2-.2-.2-.2-.3-.2-.6V29c0-.2.1-.4.2-.6.2-.2.4-.2.6-.2h2.5m-3.3-4v-2.4c0-.2.1-.4.2-.6.2-.2.4-.2.6-.2h2.5c.2 0 .4.1.6.2.2.2.2.3.2.6v2.4c0 .2-.1.4-.2.6-.2.2-.3.2-.6.2H16c-.2 0-.4-.1-.6-.2-.1-.2-.2-.4-.2-.6m15.5-2.4c0-.2.1-.4.2-.6.2-.2.3-.2.6-.2H34c.2 0 .4.1.6.2.2.2.2.3.2.6v2.4c0 .2-.1.4-.2.6-.2.1-.4.2-.6.2h-2.4c-.2 0-.4-.1-.6-.2-.2-.2-.2-.3-.2-.6v-2.4m-7.7 0c0-.2.1-.4.2-.6.2-.2.4-.2.6-.2h2.4c.2 0 .4.1.6.2.2.2.2.3.2.6v2.4c0 .2-.1.4-.2.6-.2.2-.3.2-.6.2h-2.4c-.2 0-.4-.1-.6-.2-.2-.2-.2-.3-.2-.6v-2.4m11.5-11.1c.2.1.2.3.2.6V17c0 .2-.1.4-.2.6-.2.2-.4.2-.6.2H16c-.2 0-.4-.1-.6-.2-.2-.2-.2-.3-.2-.6v-5.7c0-.2.1-.4.2-.6.2-.2.4-.2.6-.2h18c.2 0 .4 0 .6.2M38 10c0-.4-.1-.7-.2-1.1-.1-.3-.3-.6-.6-.9-.3-.3-.6-.5-.9-.6-.3-.1-.7-.2-1.1-.2H14.7c-.4 0-.7.1-1.1.2-.3.2-.6.4-.8.6-.3.3-.4.5-.6.9-.2.4-.2.7-.2 1.1v30c0 .4.1.8.2 1.1.1.3.3.6.6.9.3.3.6.5.9.6.3.1.7.2 1.1.2h20.6c.4 0 .7-.1 1.1-.2.3-.1.6-.3.9-.6.3-.3.4-.6.6-.9V10"/>
  </symbol>

  <symbol id="member__teams" viewBox="0 0 50 50">
    <title>Team Icon</title>
    <path d="M15.8 32.8c2.6 0 4.7-2.1 4.7-4.7s-2.1-4.7-4.7-4.7-4.7 2.1-4.7 4.7 2.2 4.7 4.7 4.7z"/>
    <path d="M20.8 31.9c-.3-.2-.6-.1-.8.1-1.1 1.2-2.6 1.8-4.1 1.8s-3.1-.7-4.1-1.8c-.2-.2-.6-.3-.8-.1-2.4 1.6-3.8 4.3-3.8 7.2 0 .3.3.6.6.6H24c.3 0 .6-.3.6-.6 0-2.9-1.5-5.6-3.8-7.2zM35.7 32.8c2.6 0 4.7-2.1 4.7-4.7s-2.1-4.7-4.7-4.7-4.7 2.1-4.7 4.7 2.2 4.7 4.7 4.7z"/>
    <path d="M40.7 31.9c-.3-.2-.6-.1-.8.1-1.1 1.2-2.6 1.8-4.1 1.8-1.6 0-3.1-.7-4.1-1.8-.2-.2-.6-.3-.8-.1-2.5 1.6-3.9 4.3-3.9 7.1 0 .3.3.6.6.6h16.2c.3 0 .6-.3.6-.6.1-2.8-1.4-5.5-3.7-7.1zM25.4 15.2c2.6 0 4.7-2.1 4.7-4.7S28 5.8 25.4 5.8s-4.7 2.1-4.7 4.7 2.1 4.7 4.7 4.7z"/>
    <path d="M30.3 14.2c-.3-.2-.6-.1-.8.1-1.1 1.2-2.6 1.8-4.1 1.8-1.6 0-3.1-.7-4.1-1.8-.2-.2-.6-.3-.8-.1-2.4 1.6-3.8 4.3-3.8 7.2 0 .3.3.6.6.6h16.2c.3 0 .6-.3.6-.6 0-2.9-1.4-5.5-3.8-7.2z"/>
  </symbol>




  <!-- Page Icons -->
  <symbol id="page__benefits" viewBox="0 0 50 50">
    <title>Benefits Icon</title>
    <path d="M26.2 16.3c-2.6 0-5.1.5-7.3 1.4-1.5-1.6-3.6-2.6-6-2.6l1 5.9c-1.1 1.2-1.9 2.5-2.3 4h-2c-.9 0-1.7.7-1.7 1.7V30c0 .9.7 1.7 1.7 1.7h2.9c.5.9 1.2 1.8 2.1 2.5v4.1c0 .9.7 1.7 1.7 1.7H18c.9 0 1.7-.7 1.7-1.7v-1.2c2 .7 4.2 1.2 6.6 1.2 2.4 0 4.6-.4 6.6-1.2v1.2c0 .9.7 1.7 1.7 1.7h1.7c.9 0 1.7-.7 1.7-1.7v-4.1c2.1-1.9 3.3-4.3 3.3-6.9-.2-6.1-6.9-11-15.1-11zM17 25.7c-1 0-1.8-.8-1.8-1.8s.8-1.8 1.8-1.8 1.8.8 1.8 1.8-.8 1.8-1.8 1.8z"/>
    <circle cx="26.7" cy="9.7" r="5.4"/>
  </symbol>

  <symbol id="page__salary" viewBox="0 0 50 50">
    <title>Salary Icon</title>
    <path d="M25.3 28.1v-.8c0-2.7 2.2-5 5-5H40v-4.6c0-1-.8-1.8-1.8-1.8H14.1c-.7 0-1.2-.6-1.2-1.2s.6-1.2 1.2-1.2h23.3v-2c0-1-.8-1.8-1.8-1.8H13.8c-2 0-3.6 1.6-3.6 3.6v22.6c0 2 1.6 3.6 3.6 3.6h24.4c1 0 1.8-.8 1.8-1.8V33h-9.8c-2.7 0-4.9-2.2-4.9-4.9z"/>
    <path d="M40.8 23.9H30.6c-2.1 0-3.8 1.7-3.8 3.8s1.7 3.8 3.8 3.8h10.2c.5 0 .9-.4.9-.9v-5.8c0-.5-.4-.9-.9-.9zm-10.2 5.6c-1 0-1.8-.8-1.8-1.8s.8-1.8 1.8-1.8 1.8.8 1.8 1.8-.8 1.8-1.8 1.8z"/>
  </symbol>

  <symbol id="page__help" viewBox="0 0 50 50">
    <title>Help icon</title>
    <path d="M43.8 27.3V27v-.1-.3-.2-.2-.2-.2-.3-.2-.4-.4-.2-.3-.2-.2-.2-.2-.3-.1-.3-.1c-.5-3.8-2.3-7.4-5.1-10.2C35.3 8.8 30.8 7 26 7s-9.3 1.9-12.7 5.3C9.9 15.7 8 20.2 8 25s1.9 9.3 5.3 12.7C16.7 41.1 21.2 43 26 43s9.3-1.9 12.7-5.3c2.8-2.9 4.5-6.5 5.1-10.4 0 .1 0 0 0 0zm-2.1-8.4l-7.1 2.6c0-.1-.1-.1-.1-.2-1-2.3-2.8-4.1-5.1-5l.6-1.7c1.9.8 3.6 2 4.8 3.7.1.1.3.2.5.2.1 0 .2 0 .3-.1.3-.2.3-.5.1-.8-1.4-1.8-3.2-3.2-5.3-4.1L32 9.2c4.5 1.7 8 5.2 9.7 9.7zM26 33c-4.5 0-8.1-3.6-8.1-8.1s3.6-8.1 8.1-8.1 8.1 3.6 8.1 8.1S30.5 33 26 33zM20 9.2l2.6 7.1c-2.3.9-4.2 2.8-5.2 5.2l-1.7-.6c.8-1.9 2-3.6 3.7-4.8.3-.2.3-.5.1-.8-.1-.3-.5-.3-.7-.2-1.8 1.4-3.2 3.2-4.1 5.3l-4.4-1.6c1.7-4.4 5.3-7.9 9.7-9.6zm-9.7 21.7l4.4-1.6c.8 2.1 2.2 4 4.1 5.3.1.1.2.1.3.1.2 0 .3-.1.5-.2.2-.3.1-.6-.1-.8-1.7-1.2-2.9-2.9-3.7-4.8l1.7-.6c.9 2.3 2.8 4.2 5.2 5.2L20 40.6c-4.4-1.7-8-5.3-9.7-9.7zM32 40.6l-1.6-4.4h.1c2.1-.8 3.9-2.3 5.3-4.1.2-.3.1-.6-.1-.8-.3-.2-.6-.1-.8.1-1.2 1.7-2.9 2.9-4.8 3.7l-.6-1.7c2.3-.9 4.1-2.7 5.1-5 0 0 .1-.1.1-.2l7.1 2.6c-1.8 4.5-5.3 8.1-9.8 9.8z"/>
  </symbol>

  <symbol id="page__about" viewBox="0 0 50 50">
    <title>About icon</title>
    <path d="M40.9 38.3H9.1c-.7 0-1.2.6-1.2 1.2s.6 1.2 1.2 1.2H41c.7 0 1.2-.6 1.2-1.2s-.6-1.2-1.3-1.2zM9.1 17.2H41c.6 0 1.1-.4 1.2-1s-.2-1.2-.7-1.4l-16-7.3c-.3-.2-.7-.2-1 0l-16 7.3c-.5.2-.8.8-.7 1.4.2.6.7 1 1.3 1zM11.2 20.2v15.1c0 .7.6 1.2 1.2 1.2s1.2-.6 1.2-1.2V20.2c0-.7-.6-1.2-1.2-1.2s-1.2.5-1.2 1.2zM17.5 20.2v15.1c0 .7.6 1.2 1.2 1.2S20 36 20 35.3V20.2c0-.7-.6-1.2-1.2-1.2s-1.3.5-1.3 1.2zM23.7 20.2v15.1c0 .7.6 1.2 1.2 1.2s1.2-.6 1.2-1.2V20.2c0-.7-.6-1.2-1.2-1.2s-1.2.5-1.2 1.2zM30 20.2v15.1c0 .7.6 1.2 1.2 1.2s1.2-.6 1.2-1.2V20.2c0-.7-.6-1.2-1.2-1.2s-1.2.5-1.2 1.2zM36.3 20.2v15.1c0 .7.6 1.2 1.2 1.2s1.2-.6 1.2-1.2V20.2c0-.7-.6-1.2-1.2-1.2s-1.2.5-1.2 1.2z"/>
  </symbol>

  <symbol id="page__integrations" viewBox="0 0 50 50">
    <title>Integrations icon</title>
    <path d="M6.8 22.2s5.4-7.1 8.5-5.6c3.2 1.6-.6 4.3 2.4 5.7 3.1 1.4 7.7-.3 6.7-4.4s-2.8-1.2-4.3-3.4c-1.4-2.2 7-7 7-7s5.1 10.2 6.6 7.5c1.8-3.2 4.9-6.5 8.1-1.6 0 0 2.8 3.7.4 5.2-2.4 1.6-4.5.7-5.4 2.4-.9 1.7 5.8 6.2 5.8 6.2s-4.6 7.3-7.5 5.4c-3-1.9.5-5.1-4-6.1-2-.3-5.2.8-5.8 3.6-.2 4.1 2.4 3.1 4.3 5.3 1.8 2.2-6.8 6.9-6.8 6.9s-2.4-6-5.8-7.1c-3.4-1.1-1.4 3.3-4.5 3.9-3.1.6-7.4-3.7-5.3-7.3 2.1-3.7 5-.1 5.3-3 .3-2.8-5.7-6.6-5.7-6.6z"/>
  </symbol>

  <symbol id="page__mobilemenu" viewBox="0 0 50 50">
    <title>Mobile Menu icon</title>
    <path d="M40.9 38.8H9.1c-.7 0-1.2-.6-1.2-1.2s.6-1.2 1.2-1.2H41c.7 0 1.2.6 1.2 1.2s-.6 1.2-1.3 1.2zM40.9 26.3H9.1c-.7 0-1.2-.6-1.2-1.2s.6-1.2 1.2-1.2H41c.7 0 1.2.6 1.2 1.2s-.6 1.2-1.3 1.2zM40.9 13.8H9.1c-.7 0-1.2-.6-1.2-1.2s.6-1.2 1.2-1.2H41c.7 0 1.2.6 1.2 1.2s-.6 1.2-1.3 1.2z"/>
  </symbol>

  <symbol id="page__debug" viewBox="0 0 50 50">
    <title>Debug icon</title>
    <path d="M17.2 8.4c-1.4.2-1.1 2.3.3 2.1.8 0 1.3.3 1.9.9.6.6 1 1.3 1.4 2.2l.3.9c-1.5 1.7-2.1 4.2-.9 6l-.1.1-5.1-3.5c-.2-.2-.5-.2-.8-.2-.9.2-1.2 1.4-.4 1.9l4.8 3.3c-.5.5-.9 1.1-1.3 1.8l-7.6 3.8c-.7.2-1 .9-.7 1.5.3.6 1.1.8 1.6.4l5.4-2.7c-.4 1.2-.6 2.5-.6 3.9v.3l-4 5.4c-.4.5-.3 1.2.2 1.6.5.4 1.2.3 1.5-.2l2.8-3.7c.9 3.4 3 6.1 5.7 7.4 1.3-.8 2.3-2.5 2.3-4.5V24.4c0-.6.4-1.1 1.1-1.1s1.1.4 1.1 1.1v12.7c0 1.9 1 3.6 2.3 4.5 2.7-1.3 4.8-4 5.7-7.4l2.8 3.7c.4.5 1.1.6 1.5.2.5-.4.6-1.1.2-1.6l-4-5.4v-.3c0-1.4-.2-2.7-.6-3.9l5.4 2.7c.5.4 1.3.2 1.6-.4.3-.6 0-1.3-.7-1.5l-7.6-3.8c-.4-.7-.8-1.3-1.3-1.8l4.8-3.3c1-.6.3-2.1-.8-1.9-.1 0-.3.1-.4.2l-5.2 3.5-.1-.1c1.4-2.2.4-5.2-1.7-6.8 0-.1 0-.1.1-.2.4-.9.8-1.6 1.4-2.2.6-.6 1.1-.9 1.9-.9 1.4 0 1.4-2.1 0-2.1s-2.5.6-3.4 1.5c-.8.8-1.4 1.9-1.9 2.9-.4-.1-.7-.1-1.1-.1-.7 0-1.4.2-2.1.5 0-.1-.1-.2-.1-.3-.4-1-1-2.1-1.9-2.9-.8-.8-2-1.5-3.4-1.5h-.2-.1z"/>
  </symbol>




  <!-- Leave Icons -->
  <symbol id="leave__daysoff" viewBox="0 0 50 50">
    <title>Days off</title>
    <path d="M10.8 25.2l-1.2-.7 7.1-12.3c1-1.5 2.8-2.2 4.5-1.8l13.7 4.1-.4 1.3-13.7-4.1c-1.1-.3-2.3.2-3 1.2l-7 12.3z"/>
    <path d="M14.1 41.9c-1.7.2-3.4-.7-4-2.3l-3.9-9.9c-.4-.9-.4-2 .1-2.9s1.1-1.7 2.1-2.1l27.9-11.2.9-.3c1.7-.2 3.4.7 4 2.3l3.9 9.9c.4.9.4 2-.1 2.9-.4.9-1.1 1.7-2.1 2.1L15 41.7c-.3.1-.6.2-.9.2z"/>
    <circle cx="18.8" cy="10.9" r="2.8"/>
  </symbol>

  <symbol id="leave__timeoff" viewBox="0 0 50 50">
    <title>Time off</title>
    <path d="M32.5 13.6H35v25.8H15.1V13.6h2.5c.5-1.2.8-2.4 1.3-3.4 1.8-3.3 10.6-3.3 12.4 0 .4 1 .7 2.1 1.2 3.4zm-11.7-.1h8.3c0-1.6-.9-2.6-2.5-2.7-1-.1-2 0-3 0-1.7.1-2.5.8-2.8 2.7zM38.9 13.6c1.2 0 2.3-.1 3.4 0 1.4.1 2.3 1.3 2.3 2.9V36c0 2.4-1 3.4-3.4 3.4h-2.3V13.6zM11.1 39.4H8.4c-1.9 0-3-1.1-3.1-3v-9.1-10.6c0-2.1 1-3.1 3.1-3.2H11c.1 8.7.1 17.2.1 25.9z"/>
  </symbol>

  <symbol id="leave__sickday" viewBox="0 0 50 50">
    <title>Sick Day</title>
    <path d="M40.8 15.9c0-1.8-.7-3.4-2-4.7-1.3-1.3-2.9-2-4.7-2-1.8 0-3.4.7-4.7 2L11.2 29.4c-1.3 1.3-2 2.9-2 4.7 0 1.8.7 3.4 2 4.7 1.3 1.3 2.9 2 4.7 2 1.8 0 3.4-.7 4.7-2l18.3-18.3c1.2-1.2 1.9-2.9 1.9-4.6zM25 20.4c.9 0 1.6.7 1.6 1.6 0 .9-.7 1.6-1.6 1.6-.9 0-1.6-.7-1.6-1.6 0-.9.7-1.6 1.6-1.6zm-3.1 6.3c-.9 0-1.6-.7-1.6-1.6 0-.9.7-1.6 1.6-1.6s1.6.7 1.6 1.6c0 .9-.7 1.6-1.6 1.6zm3 3c-.9 0-1.6-.7-1.6-1.6 0-.9.7-1.6 1.6-1.6.9 0 1.6.7 1.6 1.6 0 .9-.7 1.6-1.6 1.6zm3.1-3.1c-.9 0-1.6-.7-1.6-1.6 0-.9.7-1.6 1.6-1.6.9 0 1.6.7 1.6 1.6 0 .9-.7 1.6-1.6 1.6zM14.5 23.9l9.4-9.4-3.3-3.3c-1.3-1.3-2.9-2-4.7-2-1.8 0-3.4.7-4.7 2-1.3 1.3-2 2.9-2 4.7 0 1.8.7 3.4 2 4.7l3.3 3.3zM35.5 26.1l-9.4 9.4 3.3 3.3c1.3 1.3 2.9 2 4.7 2 1.8 0 3.4-.7 4.7-2 1.3-1.3 2-2.9 2-4.7 0-1.8-.7-3.4-2-4.7l-3.3-3.3z"/>
  </symbol>

  <symbol id="leave__parental" viewBox="0 0 50 50">
    <title>Parental Leave</title>
    <path d="M31.1 36.4c0-1.2 1-2.2 2.2-2.2 1.2 0 2.2 1 2.2 2.2 0 1.2-1 2.2-2.2 2.2-1.2 0-2.2-1-2.2-2.2zm-14.3.2c0-1.2 1-2.2 2.2-2.2 1.2 0 2.2 1 2.2 2.2 0 1.2-1 2.2-2.2 2.2-1.2 0-2.2-1-2.2-2.2zm-4.3-14.5l-1.9-2.5c-.2-.3-.5-.5-.8-.7L8.1 18c-.1-.9-.8-1.6-1.7-1.6-1 0-1.7.8-1.7 1.7 0 1 .8 1.7 1.7 1.7.3 0 .7-.1.9-.3l1.4.7c.3.1.4.3.6.6L11 23v3.8c0 3 1.8 5.5 4.4 6.7-.7.8-1.1 1.9-1.1 3.1 0 2.7 2.2 4.8 4.8 4.8 2.7 0 4.8-2.2 4.8-4.8 0-.9-.2-1.7-.7-2.4H29c-.4.7-.6 1.4-.6 2.2 0 2.7 2.2 4.8 4.8 4.8 2.7 0 4.8-2.2 4.8-4.8 0-1-.3-2-.9-2.8 2.7-1.1 4.5-3.7 4.5-6.7v-4.8H12.5zm29.3-2v-.8c0-6.2-5.6-11.1-12.5-11.1h-.8c-1.3 0-2.1.6-2.1 2.1v9.9h15.4z"/>
  </symbol>

  <symbol id="leave__compassionate" viewBox="0 0 50 50">
    <title>Compassionate Leave</title>
    <path d="M23.7 44.2v-2.4c-4.4-.6-7.8-4.3-7.8-8.8 3.4 0 6.3 1.9 7.8 4.7v-6.8c-1.1-.1-2.1-.4-3.2-.9-.6-.3-1.3-.7-1.8-1.3-1.4-1.5-1.9-3.9-2-6.2-.2-2.3-.2-4.7-.8-6.8-.4-1.4-1.1-2.6-2-3.6-.3-.3-.1-.8.3-.8 1.9-.3 3.9 1.1 5.4 3 1.6 2.3 2.5 5.2 3.7 7.9 1.1 2.7 2.5 5.4 4.6 6.8.1.1.2.1.2.2.1.2-.1.4-.2.6-.3.4-.8.8-1.2 1v13.5h-3zM25.1 19.3c.9-2.3 1.9-4.6 3.3-6.6.3-.5.7-1 1.2-1.4l-4.1-5.4c-.2-.3-.6-.3-.8 0l-4.1 5.4c.4.5.8.9 1.2 1.4 1.4 2 2.4 4.3 3.3 6.6zM26.7 23c.7 1.5 1.6 2.9 2.6 3.6.2.2.9.6 1.3 1.6.2.4.2.8.2 1.2.2-.2.4-.4.7-.6 1.4-1.5 1.8-3.9 2-6.2.2-2.3.2-4.7.8-6.8.5-1.4 1.1-2.6 2-3.6.3-.3.1-.8-.3-.8-2-.3-4.1 1.1-5.4 3-1.6 2.3-2.6 5.1-3.7 7.9 0 .1-.1.4-.2.7z"/>
  </symbol>




  <!-- Integrations -->
  <symbol id="integration__slack" viewBox="0 0 50 50">
    <title>Slack Logo</title>
    <path d="M23.202 28.45l-1.683-5.025 5.214-1.747 1.683 5.025z"/>
    <path d="M43 19.6C38.9 6.1 33.1 3 19.6 7 6.1 11.1 3 16.9 7 30.4 11 43.9 16.9 47 30.4 43 43.9 38.9 47 33.1 43 19.6zm-6.8 8.8l-2.5.9.9 2.6c.4 1.1-.2 2.2-1.3 2.6-.2.1-.5.1-.7.1-.8 0-1.6-.6-1.9-1.4l-.9-2.6-5.2 1.8.9 2.6c.4 1.1-.2 2.2-1.3 2.6-.2.1-.5.1-.7.1-.8 0-1.6-.6-1.9-1.4l-.9-2.6-2.5.9c-.2.1-.5.1-.7.1-.8 0-1.6-.6-1.9-1.4-.4-1.1.2-2.2 1.3-2.6l2.5-.9-1.7-5.1-2.5.9c-.2.1-.5.1-.7.1-.8 0-1.6-.6-1.9-1.4-.4-1.1.2-2.2 1.3-2.6l2.5-.9-.9-2.6c-.4-1.1.2-2.2 1.3-2.6 1.1-.4 2.2.2 2.6 1.3l.9 2.6 5.2-1.8-.9-2.6c-.4-1.1.2-2.2 1.3-2.6 1.1-.4 2.2.2 2.6 1.3l.9 2.6 2.5-.9c1.1-.4 2.2.2 2.6 1.3.4 1.1-.2 2.2-1.3 2.6l-2.5.9 1.7 5.1 2.5-.9c1.1-.4 2.2.2 2.6 1.3.3 1.1-.3 2.2-1.3 2.6z"/>
  </symbol>

  <symbol id="integration__calendar" viewBox="0 0 50 50">
    <title>Calendar Icon</title>
    <circle cx="17.1" cy="25.7" r="2.1"/>
    <circle cx="25" cy="25.7" r="2.1"/>
    <circle cx="32.9" cy="25.7" r="2.1"/>
    <circle cx="17.1" cy="32.4" r="2.1"/>
    <circle cx="25" cy="32.4" r="2.1"/>
    <circle cx="32.9" cy="32.4" r="2.1"/>
    <path d="M37.9 11.3h-1.3V15c0 1.7-1.3 3-3 3s-3-1.3-3-3v-3.7H19.3V15c0 1.7-1.3 3-3 3s-3-1.3-3-3v-3.7H12c-1.7 0-3 1.3-3 3V38.6c0 .6.4 1 1 1h29.9c.6 0 1-.4 1-1V14.3c0-1.7-1.3-3-3-3zm.5 25.7H11.6V20.9h26.9V37z"/>
    <path d="M33.7 16.3c.7 0 1.2-.6 1.2-1.2v-4.4c0-.7-.6-1.2-1.2-1.2s-1.2.6-1.2 1.2V15c-.1.7.5 1.3 1.2 1.3zM16.3 16.3c-.7 0-1.2-.6-1.2-1.2v-4.4c0-.7.6-1.2 1.2-1.2.7 0 1.2.6 1.2 1.2V15c.1.7-.5 1.3-1.2 1.3z"/>
  </symbol>

  <symbol id="integration__download" viewBox="0 0 50 50">
    <title>Download Icon</title>
    <path d="M19.2 6.8l-7.8 8.3h7.8"/>
    <path d="M38 6.1H21.7v10.3c0 .7-.6 1.2-1.2 1.2h-9.7V43c0 .7.6 1.2 1.2 1.2h26c.7 0 1.2-.6 1.2-1.2V7.3c.1-.6-.5-1.2-1.2-1.2zm-7.8 23.8l-4.1 5c-.2.3-.6.4-1 .4s-.7-.2-1-.4l-4.1-5c-.4-.5-.4-1.3.2-1.8.5-.4 1.3-.4 1.8.2l1.9 2.3v-8.5c0-.7.6-1.2 1.2-1.2s1.2.6 1.2 1.2v8.5l1.9-2.3c.4-.5 1.2-.6 1.8-.2.6.5.7 1.3.2 1.8z"/>
  </symbol>

  <symbol id="integration__suggest" viewBox="0 0 50 50">
    <title>Suggest Integration Icon</title>
    <path d="M25 7.2c-9.8 0-17.8 8-17.8 17.8s8 17.8 17.8 17.8 17.8-8 17.8-17.8S34.8 7.2 25 7.2zm8.8 19h-7.6v7.6c0 .7-.6 1.2-1.2 1.2s-1.2-.6-1.2-1.2v-7.6h-7.6c-.7 0-1.2-.6-1.2-1.2s.6-1.2 1.2-1.2h7.6v-7.6c0-.7.6-1.2 1.2-1.2s1.2.6 1.2 1.2v7.6h7.6c.7 0 1.2.6 1.2 1.2s-.5 1.2-1.2 1.2z"/>
  </symbol>




</svg>
