<svg xmlns="http://www.w3.org/2000/svg">



  <!-- Benefits and pensions -->
  <symbol id="ill__benefits_bl" viewBox="0 0 100 100">
    <title>Benefits – bottom left icon</title>
    <path d="M88.1 107.4c-4.5.1-8.3-3.6-8.4-8.1 0-2.5 1-4.7 2.7-6.2l4.6 6.7c.2.3.6.5 1 .5.2 0 .4-.1.6-.2.5-.4.6-1.1.3-1.6l-4.6-6.7c1.1-.5 2.3-.8 3.5-.9 4.5-.1 8.3 3.6 8.4 8.1.1 4.6-3.5 8.3-8.1 8.4zm-15.8-9.8l-8.2-8.3 13.4-.2-5.2 8.5zm-18.5 10.3c-4.5.1-8.3-3.6-8.4-8.1-.1-4.5 3.6-8.3 8.1-8.4 1.3 0 2.6.3 3.8.8L52.7 99c-.2.3-.3.8-.1 1.2.2.4.6.6 1 .6l8.2-.1c-.4 4-3.8 7.2-8 7.2zm8-9.5l-6 .1 3.4-5c1.4 1.3 2.3 3 2.6 4.9zm-.2-8.4l8.2 8.3-5.7.1c-.3-2.7-1.7-5.1-3.7-6.7l1.2-1.7zm26.2-1.4c-1.7 0-3.4.5-4.8 1.2L77 81c-.2-.3-.6-.5-1-.5l-5 .1c-.6 0-1.1.5-1.1 1.1 0 .6.5 1.1 1.1 1.1l4.5-.1 2.7 4-16.8.3h-.2-.1c-.1 0-.1 0-.2.1h-.1l-.1.1-.1.1s-.1.1-.1.2l-1.9 2.8c-1.5-.8-3.2-1.2-5.1-1.2-5.8.1-10.4 4.9-10.3 10.7.1 5.8 4.9 10.4 10.7 10.3 5.4-.1 9.8-4.3 10.3-9.5l8.4-.1h.4c.1 0 .1 0 .2-.1h.1c.1 0 .1-.1.2-.1l.2-.2L80 89.4l1.2 1.7c-2.3 2-3.7 4.9-3.7 8.2.1 5.8 4.9 10.4 10.7 10.3 5.8-.1 10.4-4.9 10.3-10.7-.1-5.7-4.9-10.4-10.7-10.3zM43 88.7c0-.2 0-.3.1-.5V88v-.4-.3-.4-.3-.3-.4-.2-.7-.7-.2-.4-.3-.3-.4-.3-.4-.2c0-.2 0-.3-.1-.5v-.1c-.8-6-3.5-11.5-7.9-15.8-5.2-5.2-12.2-8.1-19.6-8.1S1 60.1-4.2 65.3c-5.2 5.2-8.1 12.2-8.1 19.6 0 7.4 2.9 14.4 8.1 19.6 5.2 5.2 12.2 8.1 19.6 8.1s14.4-2.9 19.6-8.1c4.3-4.3 7-9.8 7.9-15.8.1.1.1 0 .1 0zm-3.3-13.1l-11 4c0-.1-.1-.2-.2-.3-1.5-3.5-4.3-6.3-7.9-7.7l.9-2.6c3 1.2 5.5 3.1 7.4 5.7.2.2.4.4.7.4.2 0 .4-.1.5-.2.4-.3.5-.8.2-1.2-2.1-2.8-5-5-8.2-6.3l2.5-6.8c7 2.7 12.5 8.2 15.1 15zM15.4 97.5C8.5 97.5 2.9 91.9 2.9 85s5.6-12.6 12.6-12.6S28 78 28 85c0 6.9-5.6 12.5-12.6 12.5zM6.1 60.7l4 11c-3.6 1.5-6.5 4.4-8 8l-2.6-.9c1.2-3 3.1-5.5 5.7-7.4.4-.4.5-1 .2-1.4-.3-.4-.8-.5-1.2-.2-2.8 2.1-5 5-6.3 8.2l-6.8-2.5c2.7-6.7 8.2-12.2 15-14.8zm-15 33.6l6.8-2.5c1.3 3.3 3.5 6.1 6.3 8.2.2.1.3.2.5.2.3 0 .5-.1.7-.4.3-.4.2-.9-.2-1.2-2.6-1.9-4.5-4.5-5.7-7.5l2.6-.9c1.5 3.6 4.4 6.5 8 8l-4 11c-6.8-2.6-12.3-8.1-15-14.9zm33.6 15l-2.5-6.8h.1c3.3-1.3 6.1-3.5 8.2-6.3.3-.4.2-.9-.2-1.2-.4-.3-.9-.2-1.2.2-1.9 2.6-4.5 4.6-7.4 5.8h-.1l-.9-2.6c3.5-1.4 6.4-4.2 7.9-7.7.1-.1.1-.2.2-.3l11 4c-2.7 6.7-8.2 12.2-15.1 14.9zM22.2 27.8c0-1.9-.7-3.7-2.1-5-1.4-1.4-3.1-2.1-5-2.1s-3.7.7-5 2.1L-9.5 42.3c-1.4 1.4-2.1 3.1-2.1 5s.7 3.7 2.1 5c1.4 1.4 3.1 2.1 5 2.1s3.7-.7 5-2.1L20 32.8c1.4-1.3 2.2-3.1 2.2-5zM5.3 32.6c.9 0 1.7.8 1.7 1.7 0 .9-.8 1.7-1.7 1.7-.9 0-1.7-.8-1.7-1.7 0-.9.8-1.7 1.7-1.7zM2 39.4c-.9 0-1.7-.8-1.7-1.7C.3 36.7 1 36 2 36s1.7.8 1.7 1.7c0 .9-.8 1.7-1.7 1.7zm3.2 3.2c-.9 0-1.7-.8-1.7-1.7 0-.9.8-1.7 1.7-1.7.9 0 1.7.8 1.7 1.7 0 .9-.8 1.7-1.7 1.7zm3.3-3.3c-.9 0-1.7-.8-1.7-1.7 0-.9.8-1.7 1.7-1.7.9 0 1.7.8 1.7 1.7 0 .9-.7 1.7-1.7 1.7zM-6 36.4l10-10-3.5-3.5c-1.4-1.4-3.1-2.1-5-2.1s-3.7.7-5 2.1c-1.4 1.4-2.1 3.1-2.1 5s.7 3.7 2.1 5l3.5 3.5zM16.5 38.8l-10 10 3.5 3.5c1.4 1.4 3.1 2.1 5 2.1s3.7-.7 5-2.1c1.4-1.4 2.1-3.1 2.1-5s-.7-3.7-2.1-5l-3.5-3.5z"/>
  </symbol>

  <symbol id="ill__benefits_br" viewBox="0 0 100 100">
    <title>Benefits – bottom right icon</title>
    <path d="M64.7 71.4h50.8c.9 0 1.7-.7 1.9-1.6.2-.9-.3-1.8-1.1-2.2L91 55.9c-.5-.2-1.1-.2-1.7 0L63.9 67.6c-.9.4-1.3 1.3-1.1 2.2.2.9 1 1.6 1.9 1.6zM68.2 76.2v24.1c0 1.1.9 2 2 2s2-.9 2-2V76.2c0-1.1-.9-2-2-2s-2 .9-2 2zM78.1 76.2v24.1c0 1.1.9 2 2 2s2-.9 2-2V76.2c0-1.1-.9-2-2-2s-2 .9-2 2zM88.1 76.2v24.1c0 1.1.9 2 2 2s2-.9 2-2V76.2c0-1.1-.9-2-2-2s-2 .9-2 2zM98.1 76.2v24.1c0 1.1.9 2 2 2s2-.9 2-2V76.2c0-1.1-.9-2-2-2s-2 .9-2 2zM93.8 30.2c-2.6 0-5.1.5-7.3 1.4-1.5-1.6-3.6-2.6-6-2.6l1 5.9c-1.1 1.2-1.9 2.5-2.3 4h-2c-.9 0-1.7.7-1.7 1.7v3.3c0 .9.7 1.7 1.7 1.7h2.9c.5.9 1.2 1.8 2.1 2.5v4.1c0 .9.7 1.7 1.7 1.7h1.7c.9 0 1.7-.7 1.7-1.7V51c2 .7 4.2 1.2 6.6 1.2 2.4 0 4.6-.4 6.6-1.2v1.2c0 .9.7 1.7 1.7 1.7h1.7c.9 0 1.7-.7 1.7-1.7v-4.1c2.1-1.9 3.3-4.3 3.3-6.9-.3-6-6.9-11-15.1-11zm-9.3 9.5c-1 0-1.8-.8-1.8-1.8s.8-1.8 1.8-1.8 1.8.8 1.8 1.8c.1 1-.8 1.8-1.8 1.8z"/>
    <circle cx="94.2" cy="23.7" r="5.4"/>
    <path d="M42.7 85.3h2.5v25.8h-20V85.3h2.5c.5-1.2.8-2.4 1.3-3.4 1.8-3.3 10.7-3.3 12.4 0 .5 1.1.8 2.2 1.3 3.4zm-11.7 0h8.3c0-1.6-.9-2.6-2.6-2.7-1-.1-2 0-3 0-1.7 0-2.5.8-2.7 2.7zM49.1 85.4c1.2 0 2.3-.1 3.4 0 1.4.1 2.3 1.3 2.3 2.9v19.6c0 2.4-1 3.4-3.4 3.4h-2.3V85.4zM21.2 111.2h-2.7c-2 0-3-1.1-3.1-3v-9.1-10.6c0-2.1 1-3.1 3.1-3.2h2.6c.1 8.7.1 17.2.1 25.9z"/>
  </symbol>



</svg>
