<svg xmlns="http://www.w3.org/2000/svg">


  <symbol id="anim__mobile-menu" viewBox="0 0 50 50">
    <title>Mobile Menu icon</title>
    <path class="menu__closed" d="M40.9 23.6H9.3c-.8 0-1.5.7-1.5 1.5s.7 1.5 1.5 1.5H41c.8 0 1.5-.7 1.5-1.5s-.7-1.5-1.6-1.5zM9.3 16H41c.8 0 1.5-.7 1.5-1.5s-.7-1.5-1.6-1.5H9.3c-.8 0-1.5.7-1.5 1.5S8.4 16 9.3 16zM40.9 34.2H9.3c-.8 0-1.5.7-1.5 1.5s.7 1.5 1.5 1.5H41c.8 0 1.5-.7 1.5-1.5s-.7-1.5-1.6-1.5z"/>
    <path class="menu__opened" d="M27.2 25.1L37.3 15c.6-.6.6-1.5 0-2.1s-1.5-.6-2.1 0L25.1 23 15 12.8c-.6-.6-1.5-.6-2.1 0s-.6 1.5 0 2.1L23 25.1 12.8 35.2c-.6.6-.6 1.5 0 2.1.3.3.7.4 1.1.4s.8-.1 1.1-.4l10.1-10.1 10.1 10.1c.3.3.7.4 1.1.4s.8-.1 1.1-.4c.6-.6.6-1.5 0-2.1L27.2 25.1z"/>
  </symbol>


  <symbol id="anim__settings" viewBox="0 0 50 50">
    <title>Settings icon</title>
    <path class="path-initial" d="M35.9 22.7c-.3-1.6-.9-3-1.8-4.3l1-1.2c.3-.4.3-1-.1-1.4l-1.2-1.2c-.4-.4-1-.4-1.4-.1l-1.2 1c-1.3-.9-2.7-1.5-4.3-1.8l-.1-1.6c0-.5-.5-.9-1-.9h-1.7c-.5 0-1 .4-1 .9l-.1 1.8c-1.6.3-3 .9-4.3 1.8l-1.2-1c-.4-.3-1-.3-1.4.1L14.9 16c-.4.4-.4 1-.1 1.4l1 1.2c-.9 1.3-1.5 2.7-1.8 4.3l-1.6.1c-.5 0-.9.5-.9 1v1.7c0 .5.4 1 .9 1l1.6.1c.3 1.6.9 3 1.8 4.3l-1 1.2c-.3.4-.3 1 .1 1.4l1.2 1.2c.4.4 1 .4 1.4.1l1.2-1c1.3.9 2.7 1.5 4.3 1.8l.1 1.6c0 .5.5.9 1 .9h1.7c.5 0 1-.4 1-.9l.1-1.6c1.6-.3 3-.9 4.3-1.8l1.2 1c.4.3 1 .3 1.4-.1l1.2-1.2c.4-.4.4-1 .1-1.4l-1-1.2c.9-1.3 1.5-2.7 1.8-4.3l1.6-.1c.5 0 .9-.5.9-1V24c0-.5-.4-1-.9-1l-1.6-.3zm-5.3 2c0 3.1-2.5 5.6-5.6 5.6s-5.6-2.5-5.6-5.6c0-3.1 2.5-5.6 5.6-5.6s5.6 2.6 5.6 5.6z"/>
    <path class="path-hidden path-check" d="M22.4 34.8c-.3 0-.6-.1-.9-.3L13 28.4c-.7-.5-.8-1.4-.3-2.1.5-.7 1.4-.8 2.1-.3l7.3 5.3 11.4-15.7c.5-.7 1.4-.8 2.1-.3.7.5.8 1.4.3 2.1l-12.3 17c-.2.3-.6.5-1 .6 0-.2-.1-.2-.2-.2z"/>
  </symbol>


  <symbol id="anim__lockable" viewBox="0 0 50 50">
    <title>Lock icon</title>
    <path class="anim-lock" d="M15.9 39.2c-1.1 0-2-.9-2-2V19c0-6.9 4.3-11.3 10.9-11.3S35.6 12.1 35.6 19v5.2c0 1.1-.9 2-2 2s-2-.9-2-2V19c0-6.6-4.8-7.3-6.9-7.3s-6.9.7-6.9 7.3v18.2c.1 1.1-.8 2-1.9 2z"/>
    <path d="M38.6 25.1c-4.3-1.9-8.9-2.8-13.6-2.8-4.7 0-9.3.9-13.6 2.8-.5.2-.8.6-.8 1.1V42c0 .5.3 1 .8 1.1 4.3 2 8.9 2.9 13.6 2.9s9.3-.9 13.6-2.8c.5-.2.8-.6.8-1.1V26.2c0-.5-.3-.9-.8-1.1z"/>
  </symbol>


  <symbol id="anim__loader" viewBox="0 0 50 50">
    <title>Loader icon</title>
    <path class="stroke--primary" fill="none" d="M12.2 25c0-7.1 5.7-12.8 12.8-12.8 5.3 0 9.8 3.2 11.8 7.8M37.8 25c0 7.1-5.7 12.8-12.8 12.8-5.4 0-10-3.3-11.9-8M34.4 27.8l3.4-2.8 2.8 3.4"/>
    <path class="stroke--primary" fill="none" d="M15.6 22.2L12.2 25l-2.8-3.4"/>
  </symbol>


  <symbol id="anim__menucheck" viewBox="0 0 50 50">
    <title>Mobile menu step</title>
    <path class="company-setup__check" d="M23.2 35.2c-.4 0-.8-.1-1.1-.4l-8.3-6c-.8-.6-1-1.8-.4-2.6s1.8-1 2.6-.4l6.8 4.9 11-15.1c.6-.8 1.8-1 2.6-.4s1 1.8.4 2.6L24.7 34.4c-.3.4-.7.7-1.2.8h-.3z"/>
    <circle class="company-setup__upcoming" cx="25" cy="25" r="7.5"/>
  </symbol>


  <symbol id="anim__document" viewBox="0 0 50 50">
    <title>Documents Icon</title>
    <path d="M19.2 6.8l-7.8 8.3h7.8"/>
    <path d="M38 6.1H21.7v10.3c0 .7-.6 1.2-1.2 1.2h-9.7V43c0 .7.6 1.2 1.2 1.2h26c.7 0 1.2-.6 1.2-1.2V7.3c.1-.6-.5-1.2-1.2-1.2z"/>
    <path class="path-download" d="M30.1 28.1c-.5-.4-1.3-.4-1.8.2l-1.9 2.3v-8.5c0-.7-.6-1.2-1.2-1.2s-1.2.6-1.2 1.2v8.5l-1.9-2.3c-.4-.5-1.2-.6-1.8-.2-.5.4-.6 1.2-.2 1.8l4.1 5c.2.3.6.4 1 .4s.7-.2 1-.4l4.1-5c.4-.5.3-1.3-.2-1.8z"/>
    <path class="path-upload" d="M20.2 28c.5.4 1.3.4 1.8-.2l1.9-2.3V34c0 .7.6 1.2 1.2 1.2s1.2-.6 1.2-1.2v-8.5l1.9 2.3c.4.5 1.2.6 1.8.2.5-.4.6-1.2.2-1.8l-4.1-5c-.2-.3-.6-.4-1-.4s-.7.2-1 .4l-4.1 5c-.4.6-.4 1.4.2 1.8z"/>
    <path class="path-success" d="M23.8 34.5c-.3 0-.5-.1-.7-.2l-5.5-4c-.6-.4-.7-1.2-.3-1.7.4-.6 1.2-.7 1.7-.3l4.5 3.3 7.3-10.1c.4-.6 1.2-.7 1.7-.3s.7 1.2.3 1.7l-8 11.1c-.2.3-.5.4-.8.5h-.2z"/>
    <path class="path-error" d="M26.9 29.4l4.3-4.3c.5-.5.5-1.3 0-1.8s-1.3-.5-1.8 0l-4.3 4.3-4.3-4.3c-.5-.5-1.3-.5-1.8 0s-.5 1.3 0 1.8l4.3 4.3-4.3 4.3c-.5.5-.5 1.3 0 1.8.2.2.6.4.9.4s.6-.1.9-.4l4.3-4.3 4.3 4.3c.2.2.6.4.9.4s.6-.1.9-.4c.5-.5.5-1.3 0-1.8l-4.3-4.3z"/>
  </symbol>


  <symbol id="anim__contact" viewBox="0 0 50 50">
    <title>Contact team member Icon</title>
    <path class="anim-hide" d="M14.2,38.2c-0.3,0-0.6-0.1-0.8-0.3c-0.3-0.3-0.4-0.7-0.3-1.1l1.4-4.7c-2.7-2.2-4.3-5.3-4.3-8.4 c0-6.6,6.6-11.9,14.7-11.9s14.7,5.4,14.7,11.9c0,6.6-6.5,11.9-14.6,11.9l-10.6,2.5C14.4,38.2,14.3,38.2,14.2,38.2z"/>
    <polyline class="anim-show" points="19.6,30.5 19.6,19.7 30.4,19.7"/>
  </symbol>


  <symbol id="anim__history" viewBox="0 0 50 50">
    <title>Animated history icon</title>
    <path class="icon-fill__placeholder icon-fill__placeholder--current" d="M30.1 8.1c-8.1-2.7-16.7.8-20.9 7.8l-.7-1.8c-.3-.8-1.2-1.2-2.1-.9-.8.3-1.2 1.2-.9 2.1l2.1 5.3c.2.6.8 1 1.5 1 .2 0 .4 0 .6-.1l5.2-2c.8-.3 1.2-1.2.9-2.1-.3-.8-1.2-1.2-2.1-.9l-1.3.5c3.5-5.4 10.3-8 16.7-5.8 7.6 2.5 11.8 10.7 9.3 18.4-2.5 7.6-10.7 11.8-18.4 9.3-3.6-1.2-6.5-3.7-8.3-7-.4-.8-1.4-1.1-2.2-.7-.8.4-1.1 1.4-.7 2.2C11 37.5 14.6 40.6 19 42c1.8.6 3.7.9 5.6.9C32 42.8 39 38 41.4 30.6c3.1-9.4-2-19.4-11.3-22.5z"/>
    <g class="anim-reposition__history">
      <g class="anim-path__history">
        <path class="anim-path__backwards" d="M5.1-16.9c-8.1-2.7-16.7.8-20.9 7.8l-.7-1.8c-.3-.8-1.2-1.2-2.1-.9-.8.3-1.2 1.2-.9 2.1l2.1 5.3c.2.6.8 1 1.5 1 .2 0 .4 0 .6-.1l5.2-2c.8-.3 1.2-1.2.9-2.1-.3-.8-1.2-1.2-2.1-.9l-1.3.5c3.5-5.4 10.3-8 16.7-5.8 7.6 2.5 11.8 10.7 9.3 18.4C10.8 12.2 2.6 16.3-5 13.8c-3.6-1.2-6.5-3.7-8.3-7-.4-.8-1.4-1.1-2.2-.7-.8.4-1.1 1.4-.7 2.2 2.2 4.1 5.8 7.2 10.2 8.6 1.8.6 3.7.9 5.6.9C7 17.8 14 13 16.4 5.6c3.1-9.4-2-19.4-11.3-22.5z"/>
        <path class="anim-path__forwards" d="M5.1 16.9c-8.1 2.7-16.7-.8-20.9-7.8l-.7 1.8c-.3.8-1.2 1.2-2.1.9-.8-.3-1.2-1.2-.9-2.1l2.1-5.3c.2-.6.8-1 1.5-1 .2 0 .4 0 .6.1l5.2 2c.8.3 1.2 1.2.9 2.1-.3.8-1.2 1.2-2.1.9l-1.3-.5c3.5 5.4 10.3 8 16.7 5.8 7.6-2.5 11.8-10.7 9.3-18.4C10.8-12.2 2.6-16.3-5-13.8c-3.6 1.2-6.5 3.7-8.3 7-.4.8-1.4 1.1-2.2.7-.8-.4-1.1-1.4-.7-2.2 2.2-4.1 5.8-7.2 10.2-8.6 1.8-.6 3.7-.9 5.6-.9C7-17.8 14-13 16.4-5.6c3.1 9.4-2 19.4-11.3 22.5z"/>
      </g>
    </g>
    <path d="M16.6 33.4c.3.3.7.5 1.1.5s.8-.2 1.1-.5l5.2-5.2c.3.1.6.1.9.1 1.8 0 3.3-1.5 3.3-3.3 0-1.2-.7-2.3-1.7-2.9v-7.4c0-.9-.7-1.6-1.6-1.6s-1.6.7-1.6 1.6v7.4c-1 .6-1.7 1.6-1.7 2.9 0 .3.1.6.1.9l-5.2 5.2c-.5.7-.5 1.6.1 2.3z"/>
  </symbol>

  <symbol id="anim__leave" viewBox="0 0 50 50">
    <title>Leave type icon</title>
    <!-- Holidays -->
    <path class="icon-leave__path icon-leave__timeoff" d="M32.5 14.6H35v25.8H15.1V14.6h2.5c.5-1.2.8-2.4 1.3-3.4 1.8-3.3 10.6-3.3 12.4 0 .4 1 .7 2.1 1.2 3.4zm-11.7-.1h8.3c0-1.6-.9-2.6-2.5-2.7-1-.1-2 0-3 0-1.7.1-2.5.8-2.8 2.7zM38.9 14.6c1.2 0 2.3-.1 3.4 0 1.4.1 2.3 1.3 2.3 2.9V37c0 2.4-1 3.4-3.4 3.4h-2.3V14.6zM11.1 40.4H8.4c-1.9 0-3-1.1-3.1-3v-9.1-10.6c0-2.1 1-3.1 3.1-3.2H11c.1 8.7.1 17.2.1 25.9z"/>
    <!-- Custom days off -->
    <path class="icon-leave__path icon-leave__daysoff" d="M44.7 25.6l-3.9-9.9c-.6-1.6-2.3-2.6-4-2.3-.3 0-.6.1-.9.3l-1.8.7-12.7-3.8C21.2 9.1 20 8 18.6 8c-1.6 0-2.8 1.3-2.8 2.8 0 .6.2 1.2.5 1.6L9.7 24.1l-1.7.6c-.9.4-1.7 1.1-2.1 2.1-.4.9-.4 2-.1 2.9l3.9 9.9c.6 1.6 2.3 2.6 4 2.3.3 0 .6-.1.9-.3l27.9-11.2c.9-.4 1.7-1.1 2.1-2.1.5-.8.5-1.8.1-2.7zm-33-2.3l5.7-9.9c.4.2.8.3 1.2.3 1.2 0 2.2-.7 2.6-1.8l10.9 3.2-20.4 8.2z"/>
    <!-- Sickdays -->
    <path class="icon-leave__path icon-leave__sickday" d="M41.8 14.9c0-1.8-.7-3.4-2-4.7-1.3-1.3-2.9-2-4.7-2-1.8 0-3.4.7-4.7 2L12.2 28.4c-1.3 1.3-2 2.9-2 4.7 0 1.8.7 3.4 2 4.7 1.3 1.3 2.9 2 4.7 2 1.8 0 3.4-.7 4.7-2l18.3-18.3c1.2-1.2 1.9-2.9 1.9-4.6zM26 19.4c.9 0 1.6.7 1.6 1.6 0 .9-.7 1.6-1.6 1.6-.9 0-1.6-.7-1.6-1.6 0-.9.7-1.6 1.6-1.6zm-3.1 6.3c-.9 0-1.6-.7-1.6-1.6 0-.9.7-1.6 1.6-1.6s1.6.7 1.6 1.6c0 .9-.7 1.6-1.6 1.6zm3 3c-.9 0-1.6-.7-1.6-1.6 0-.9.7-1.6 1.6-1.6.9 0 1.6.7 1.6 1.6 0 .9-.7 1.6-1.6 1.6zm3.1-3.1c-.9 0-1.6-.7-1.6-1.6 0-.9.7-1.6 1.6-1.6.9 0 1.6.7 1.6 1.6 0 .9-.7 1.6-1.6 1.6zM15.5 22.9l9.4-9.4-3.3-3.3c-1.3-1.3-2.9-2-4.7-2-1.8 0-3.4.7-4.7 2-1.3 1.3-2 2.9-2 4.7 0 1.8.7 3.4 2 4.7l3.3 3.3zM36.5 25.1l-9.4 9.4 3.3 3.3c1.3 1.3 2.9 2 4.7 2 1.8 0 3.4-.7 4.7-2 1.3-1.3 2-2.9 2-4.7 0-1.8-.7-3.4-2-4.7l-3.3-3.3z"/>
    <!-- Parental -->
    <path class="icon-leave__path icon-leave__parental" d="M33.1 36.4c0-1.2 1-2.2 2.2-2.2 1.2 0 2.2 1 2.2 2.2 0 1.2-1 2.2-2.2 2.2-1.2 0-2.2-1-2.2-2.2zm-14.3.2c0-1.2 1-2.2 2.2-2.2 1.2 0 2.2 1 2.2 2.2 0 1.2-1 2.2-2.2 2.2-1.2 0-2.2-1-2.2-2.2zm-4.3-14.5l-1.9-2.5c-.2-.3-.5-.5-.8-.7l-1.7-.9c-.1-.9-.8-1.6-1.7-1.6-1 0-1.7.8-1.7 1.7 0 1 .8 1.7 1.7 1.7.3 0 .7-.1.9-.3l1.4.7c.3.1.4.3.6.6L13 23v3.8c0 3 1.8 5.5 4.4 6.7-.7.8-1.1 1.9-1.1 3.1 0 2.7 2.2 4.8 4.8 4.8 2.7 0 4.8-2.2 4.8-4.8 0-.9-.2-1.7-.7-2.4H31c-.4.7-.6 1.4-.6 2.2 0 2.7 2.2 4.8 4.8 4.8 2.7 0 4.8-2.2 4.8-4.8 0-1-.3-2-.9-2.8 2.7-1.1 4.5-3.7 4.5-6.7v-4.8H14.5zm29.3-2v-.8c0-6.2-5.6-11.1-12.5-11.1h-.8c-1.3 0-2.1.6-2.1 2.1v9.9h15.4z"/>
    <!-- Compassionate -->
    <path class="icon-leave__path icon-leave__compassionate" d="M24.7 43.2v-2.4c-4.4-.6-7.8-4.3-7.8-8.8 3.4 0 6.3 1.9 7.8 4.7v-6.8c-1.1-.1-2.1-.4-3.2-.9-.6-.3-1.3-.7-1.8-1.3-1.4-1.5-1.9-3.9-2-6.2-.2-2.3-.2-4.7-.8-6.8-.4-1.4-1.1-2.6-2-3.6-.3-.3-.1-.8.3-.8 1.9-.3 3.9 1.1 5.4 3 1.6 2.3 2.5 5.2 3.7 7.9 1.1 2.7 2.5 5.4 4.6 6.8.1.1.2.1.2.2.1.2-.1.4-.2.6-.3.4-.8.8-1.2 1v13.5h-3zM26.1 18.3c.9-2.3 1.9-4.6 3.3-6.6.3-.5.7-1 1.2-1.4l-4.1-5.4c-.2-.3-.6-.3-.8 0l-4.1 5.4c.4.5.8.9 1.2 1.4 1.4 2 2.4 4.3 3.3 6.6zM27.7 22c.7 1.5 1.6 2.9 2.6 3.6.2.2.9.6 1.3 1.6.2.4.2.8.2 1.2.2-.2.4-.4.7-.6 1.4-1.5 1.8-3.9 2-6.2.2-2.3.2-4.7.8-6.8.5-1.4 1.1-2.6 2-3.6.3-.3.1-.8-.3-.8-2-.3-4.1 1.1-5.4 3-1.6 2.3-2.6 5.1-3.7 7.9 0 .1-.1.4-.2.7z"/>
  </symbol>



  <!-- Icons for input elements -->

  <symbol id="input__switch" viewBox="0 0 50 50">
    <title>Toggle switch Icon</title>
    <path class="onoff_bg" d="M33.3,36.6H17.1c-6.4,0-11.6-5.2-11.6-11.6v0c0-6.4,5.2-11.6,11.6-11.6h16.2c6.4,0,11.6,5.2,11.6,11.6v0 C44.9,31.4,39.7,36.6,33.3,36.6z"/>

    <polyline class="onoff_stroke" points="21.4,21.6 16.4,28.4 13,25.9  "/>
    <line class="onoff_stroke" x1="30.2" y1="21.8" x2="36.5" y2="28.2"/>
    <line class="onoff_stroke" x1="36.5" y1="21.8" x2="30.2" y2="28.2"/>

    <circle class="onoff_check" cx="33.3" cy="25" r="8.1"/>
  </symbol>


  <symbol id="input__checkbox" viewBox="0 0 50 50">
    <title>Checkbox Icon</title>
    <rect class="fill stroke stroke-black" x="9.8" y="9.8" width="30.4" height="30.4"/>
    <polyline class="stroke stroke-current checkbox__check fill-none" points="33.1,18 23.5,31.3 16.8,26.5"/>
  </symbol>


  <symbol id="input__radio" viewBox="0 0 50 50">
    <title>Radio button Icon</title>
    <circle class="radio__bg" cx="25" cy="25" r="17.3"></circle>
    <circle class="radio__check" cx="25" cy="25" r="11"></circle>
  </symbol>


</svg>
