<svg xmlns="http://www.w3.org/2000/svg">



  <!-- Auto enrolment illustrations -->
  <symbol id="ill-pension__find" viewBox="0 0 98.1 85.8">
    <title>Find your staging date</title>
    <g class="icon-fill--muted">
      <circle class="icon-fill__secondary" cx="58.9" cy="29.6" r="12.2"/>
      <path class="icon-fill__secondary" d="M47.5 52.9l5.2-10.1c.2-.3 0-.8-.3-.9-.3-.2-.8 0-.9.3l-5.2 10.1c-.2.3 0 .8.3.9.3.2.7 0 .9-.3zM66 17.3l5.2-10.1c.2-.3 0-.8-.3-.9-.3-.2-.8 0-.9.3l-5.2 10.1c-.2.3 0 .8.3.9.3.1.7 0 .9-.3zM82 41l-10.1-5.2c-.3-.2-.8 0-.9.3-.2.3 0 .8.3.9l10.1 5.2c.3.2.8 0 .9-.3.2-.3 0-.8-.3-.9zM46.3 22.4l-9.8-5.1c-.3-.2-.8 0-.9.3-.2.3 0 .8.3.9l9.8 5.1c.3.2.8 0 .9-.3.1-.3 0-.7-.3-.9zM66.1 50.6l-2.3-7.3c-.1-.4-.5-.6-.9-.5-.4.1-.6.5-.5.9l2.3 7.3c.1.4.5.6.9.5.4-.1.6-.5.5-.9zM55.1 15.7l-2.3-7.3c-.1-.4-.5-.6-.9-.5-.4.1-.6.5-.5.9l2.3 7.3c.1.4.5.6.9.5.4-.1.6-.5.5-.9zM44.8 33.4l-7.3 2.3c-.4.1-.6.5-.5.9.1.4.5.6.9.5l7.3-2.3c.4-.1.6-.5.5-.9-.2-.4-.6-.6-.9-.5zM79.7 22.3l-7.3 2.3c-.4.1-.6.5-.5.9.1.4.5.6.9.5l7.3-2.3c.4-.1.6-.5.5-.9-.1-.4-.5-.6-.9-.5z"/>
    </g>
    <path class="icon-fill__secondary" d="M41.3 36.1L21.5 50v23.6h40.4V50"/>
    <path class="icon-fill__white" d="M35.3 20.5l-8.7 9.2h8.7"/>
    <path class="icon-fill__white" d="M55.7 19.7H38v11.4c0 .8-.6 1.4-1.4 1.4H25.9v29.4h31.6V21.5c0-1-.8-1.8-1.8-1.8z"/>
    <path class="icon-fill__secondary" d="M41.7 61.8L21.5 50v23.6h40.4V50"/>
    <path class="icon-fill--muted icon-fill__secondary" d="M40.5 47.8c-.2 0-.4-.1-.6-.2L35 44c-.4-.3-.5-.9-.2-1.3s.9-.5 1.3-.2l4.3 3.1 6.7-9.3c.3-.4.9-.5 1.3-.2s.5.9.2 1.3l-7.3 10.1c-.1.2-.4.3-.6.4-.1-.1-.1-.1-.2-.1z"/>
  </symbol>

  <symbol id="ill-pension__choose" viewBox="0 0 98.1 85.8">
    <title>Choose pension provider</title>
    <g class="icon-fill--muted">
      <path class="icon-fill__secondary" d="M83.5 43.6l-3.7 4h3.7"/>
      <path class="icon-fill__secondary" d="M92.5 43.3h-7.8v4.9c0 .3-.3.6-.6.6h-4.7v12.1c0 .3.3.6.6.6h12.4c.3 0 .6-.3.6-.6v-17c.1-.4-.2-.6-.5-.6zm-2.5 8l-3.8 5.3c-.1.1-.2.2-.4.2h-.1c-.1 0-.2 0-.4-.1l-2.6-1.9c-.3-.2-.3-.6-.1-.8.2-.3.6-.3.8-.1l2.2 1.6 3.5-4.8c.2-.3.6-.3.8-.1s.3.4.1.7z"/>
    </g>
    <g class="icon-fill--muted">
      <path class="icon-fill__secondary" d="M17.5 45.1c-1.9 0-3.6.4-5.2 1-1.1-1.1-2.6-1.8-4.2-1.8l.7 4.2c-.8.8-1.4 1.8-1.7 2.8H5.7c-.6 0-1.2.5-1.2 1.2v2.4c0 .6.5 1.2 1.2 1.2h2.1c.4.6.9 1.3 1.5 1.8v2.9c0 .6.5 1.2 1.2 1.2h1.2c.6 0 1.2-.5 1.2-1.2V60c1.4.5 3 .8 4.7.8 1.7 0 3.3-.3 4.7-.8v.8c0 .6.5 1.2 1.2 1.2h1.2c.6 0 1.2-.5 1.2-1.2v-2.9c1.5-1.3 2.4-3 2.4-4.9-.2-4.4-4.9-7.9-10.8-7.9zm-6.6 6.7c-.7 0-1.3-.6-1.3-1.3 0-.7.6-1.3 1.3-1.3.7 0 1.3.6 1.3 1.3 0 .7-.6 1.3-1.3 1.3z"/>
      <circle class="icon-fill__secondary" cx="17.8" cy="40.4" r="3.9"/>
    </g>
    <path class="icon-fill__secondary" d="M26.2 21.5h47.9v1.9H26.2z"/>
    <path class="icon-fill__off-white" d="M26.3 34.7h47.6V54H26.3z"/>
    <path class="icon-fill__tertiary" d="M26.3 22.8h47.6v17.1H26.3z"/>
    <path class="icon-fill--weak icon-fill__white" d="M56.1 28.8h-12c-.3 0-.5-.2-.5-.5s.2-.5.5-.5h12.1c.3 0 .5.2.5.5-.1.3-.3.5-.6.5zM50.1 30.9h-6c-.3 0-.5-.2-.5-.5s.2-.5.5-.5h6c.3 0 .5.2.5.5-.1.3-.3.5-.5.5zM41.2 36.5H30c-.5 0-.9-.4-.9-.9v-9.3c0-.5.4-.9.9-.9h11.2c.5 0 .9.4.9.9v9.3c0 .5-.4.9-.9.9zM64.5 26.5c2.2 0 3.9 1.8 3.9 3.9 0 2.2-1.8 3.9-3.9 3.9s-3.9-1.8-3.9-3.9c0-2.1 1.8-3.9 3.9-3.9m0-1.1c-2.8 0-5 2.2-5 5s2.2 5 5 5 5-2.2 5-5c0-2.7-2.2-5-5-5z"/>
    <path class="icon-fill__secondary" d="M73.7 21.9v31.8H26.4V21.9h47.3m.1-.7H26.4c-.4 0-.7.3-.7.7v31.8c0 .4.3.7.7.7h47.3c.4 0 .7-.3.7-.7V21.9c0-.4-.3-.7-.6-.7z"/>
    <path class="icon-fill__secondary" d="M80.6 65.2H42.9c-.9 0-1.7-.8-1.7-1.7V37.2c0-.9.8-1.7 1.7-1.7h37.7c.9 0 1.7.8 1.7 1.7v26.3c-.1.9-.8 1.7-1.7 1.7z"/>
    <circle class="icon-fill__tertiary" cx="80.4" cy="50.4" r="1"/>
    <path class="icon-fill__off-white" d="M44 49.9h34.9v12H44z"/>
    <path class="icon-fill__tertiary" d="M44 38.7h34.9v11.1H44z"/>
    <path class="icon-fill__white" d="M68.3 46.2H55.2c-.3 0-.6-.2-.6-.6v-.9c0-.3.2-.6.6-.6h13.1c.3 0 .6.2.6.6v.9c-.1.3-.3.6-.6.6z"/>
    <path class="icon-fill--muted icon-fill__tertiary" d="M64.9 58.5h-6.3c-.3 0-.6-.2-.6-.6v-1.4c0-.3.2-.6.6-.6h6.3c.3 0 .6.2.6.6V58c-.1.3-.3.5-.6.5z"/>
    <path class="icon-fill__white" d="M68.3 53.7H55.2c-.3 0-.6-.2-.6-.6v-5c0-.3.2-.6.6-.6h13.1c.3 0 .6.2.6.6v5c-.1.4-.3.6-.6.6z"/>
    <path class="icon-fill__secondary" d="M35.1 64.7H20.4c-.8 0-1.4-.6-1.4-1.4V32.7c0-.8.6-1.4 1.4-1.4h14.7c.8 0 1.4.6 1.4 1.4v30.5c-.1.8-.7 1.5-1.4 1.5z"/>
    <circle class="icon-fill__tertiary" cx="27.7" cy="62.3" r="1.2"/>
    <circle class="icon-fill__tertiary" cx="25.2" cy="33.6" r=".3"/>
    <path class="icon-fill__tertiary" d="M29.4 33.9h-2.6c-.1 0-.3-.1-.3-.3 0-.1.1-.3.3-.3h2.6c.1 0 .3.1.3.3 0 .2-.1.3-.3.3z"/>
    <path class="icon-fill__off-white" d="M19.9 49.2h15.4v10.9H19.9z"/>
    <path class="icon-fill__tertiary" d="M19.9 35.3h15.4v13.9H19.9z"/>
    <path class="icon-fill--weak icon-fill__white" d="M27.6 38.4c2.1 0 3.8 1.7 3.8 3.8S29.7 46 27.6 46s-3.8-1.7-3.8-3.8 1.7-3.8 3.8-3.8m0-1c-2.7 0-4.9 2.2-4.9 4.9s2.2 4.9 4.9 4.9 4.9-2.2 4.9-4.9c-.1-2.8-2.2-4.9-4.9-4.9z"/>
  </symbol>

  <symbol id="ill-pension__assess" viewBox="0 0 98.1 85.8">
    <title>Run assessment</title>
    <path class="icon-fill--muted icon-fill__secondary" d="M73.3 24.7c-.4-2.3-1.3-4.5-2.6-6.4l2.4-2.8-3.8-3.8-2.8 2.4c-1.9-1.3-4-2.2-6.4-2.6l-.3-3.7h-5.4l-.3 3.7c-2.3.4-4.5 1.3-6.4 2.6l-2.8-2.4-3.8 3.8 2.4 2.8c-1.3 1.9-2.2 4-2.6 6.4l-3.5.3v5.4l3.7.3c.4 2.3 1.3 4.5 2.6 6.4l-2.4 2.8 3.8 3.8 2.8-2.4c1.9 1.3 4 2.2 6.4 2.6l.3 3.7H60l.3-3.7c2.3-.4 4.5-1.3 6.4-2.6l2.8 2.4 3.8-3.8-2.6-2.9c1.3-1.9 2.2-4 2.6-6.4l3.7-.3V25l-3.7-.3zm-7.8 3c0 4.6-3.7 8.3-8.3 8.3s-8.3-3.7-8.3-8.3c0-4.6 3.7-8.3 8.3-8.3s8.3 3.7 8.3 8.3z"/>
    <path class="icon-fill--muted icon-fill__secondary" d="M52.7 55.2c-.4-2.3-1.3-4.5-2.6-6.4l2.4-2.8-3.8-3.8-2.8 2.4c-1.9-1.3-4-2.2-6.4-2.6l-.3-3.7h-5.4l-.3 3.7c-2.3.4-4.5 1.3-6.4 2.6l-2.8-2.4-3.7 3.8 2.4 2.8c-1.3 1.9-2.2 4-2.6 6.4l-3.7.3v5.4l3.7.3c.4 2.3 1.3 4.5 2.6 6.4l-2.4 2.8 3.8 3.8 2.8-2.4c1.9 1.3 4 2.2 6.4 2.6l.3 3.7h5.4l.3-3.7c2.3-.4 4.5-1.3 6.4-2.6l2.8 2.4 3.8-3.8-2.6-2.9c1.3-1.9 2.2-4 2.6-6.4l3.7-.3v-5.4l-3.6-.2zm-7.9 3c0 4.6-3.7 8.3-8.3 8.3s-8.3-3.7-8.3-8.3c0-4.6 3.7-8.3 8.3-8.3s8.3 3.7 8.3 8.3z"/>
    <path class="icon-fill__white" d="M83.7 40.8H32.4v-20h51.3c1.1 0 2 .9 2 2v16c0 1.1-.9 2-2 2z"/>
    <path class="icon-fill__secondary" d="M14.4 20.8h18v20h-18c-1.1 0-2-.9-2-2v-16c0-1.1.9-2 2-2z"/>
    <path class="icon-fill__white" d="M83.7 64.8H32.4v-20h51.3c1.1 0 2 .9 2 2v16c0 1.1-.9 2-2 2z"/>
    <path class="icon-fill__secondary" d="M14.4 44.8h18v20h-18c-1.1 0-2-.9-2-2v-16c0-1.1.9-2 2-2z"/>
    <g class="icon-fill--muted">
      <path class="icon-fill__white" d="M21.83 31.608l-.57-1.707 1.8-.602.573 1.707z"/>
      <path class="icon-fill__white" d="M28.6 28.6c-1.4-4.6-3.4-5.7-8.1-4.3-4.6 1.4-5.7 3.4-4.3 8.1 1.4 4.6 3.4 5.7 8.1 4.3 4.6-1.5 5.7-3.5 4.3-8.1zm-2.3 3l-.9.3.3.9c.1.4-.1.8-.4.9h-.2c-.3 0-.6-.2-.6-.5l-.3-.9-1.8.6.3.9c.1.4-.1.8-.4.9h-.2c-.3 0-.6-.2-.6-.5l-.3-.9-.9.3h-.2c-.3 0-.6-.2-.6-.5-.1-.4.1-.8.4-.9l.9-.3-.6-1.7-1.2.4h-.2c-.3 0-.6-.2-.6-.5-.1-.4.1-.8.4-.9l.9-.3-.3-.9c-.1-.4.1-.8.4-.9.4-.1.8.1.9.4l.3.9 1.8-.6-.3-.8c-.1-.4.1-.8.4-.9.4-.1.8.1.9.4l.3.9.9-.3c.4-.1.8.1.9.4.1.4-.1.8-.4.9l-.9.3.6 1.7.9-.3c.4-.1.8.1.9.4 0 .6-.2 1-.5 1.1z"/>
    </g>
    <g class="icon-fill--muted">
      <path class="icon-fill__white" d="M27.5 51.2h-9.6l4.8 3.3"/>
      <path class="icon-fill__white" d="M22.7 55.6l-5.8-3.9v7.1h11.6v-7.1"/>
    </g>
  </symbol>

  <symbol id="ill-pension__sync" viewBox="0 0 98.1 85.8">
    <title>Sync with pension provider</title>
    <g class="icon-fill--muted">
      <path class="icon-fill__secondary" d="M91.4 45.1l-8.1-8c-.8-.8-2.2-.8-3 0l-8 8.1c-.8.8-.8 2.2 0 3 .8.8 2.2.8 3 0l4.5-4.6C79 58.5 67.5 71.1 52.2 72.7c-12.6 1.3-24.5-5-30.4-16.2-.5-1-1.8-1.4-2.8-.9-1 .5-1.4 1.8-.9 2.8 6.8 12.8 20.3 20 34.6 18.6 1.8-.2 3.5-.5 5.2-.9 14.8-3.8 25.5-17 26.2-32.2l4.4 4.3c.5.5 1.3.7 2 .5.4-.1.7-.3 1-.6.7-.8.7-2.1-.1-3zM16.9 47.5c.4-.1.7-.3 1-.6l8-8.1c.8-.8.8-2.2 0-3-.8-.8-2.2-.8-3 0l-4.6 4.6c.3-6.5 2.7-12.8 6.9-17.9 5.2-6.4 12.6-10.4 20.8-11.2 12.4-1.3 24.2 4.9 30.2 15.8.6 1 1.8 1.4 2.9.8 1-.6 1.4-1.8.8-2.9-7-12.2-20.4-19.2-34.5-17.8C28 9 14.9 23.4 14.1 40.3L9.7 36c-.8-.8-2.2-.8-3 0-.8.8-.8 2.2 0 3l8.1 8c.6.5 1.4.7 2.1.5z"/>
    </g>
    <path class="icon-fill__secondary" d="M47.1 30.5L24.7 46.3v26.6h45.7V46.3"/>
    <path class="icon-fill__white" d="M40.3 12.9l-9.7 10.4h9.7"/>
    <path class="icon-fill__white" d="M63.4 12h-20v12.9c0 .9-.7 1.6-1.6 1.6H29.7v33.3h35.7V14c0-1.1-.9-2-2-2z"/>
    <path class="icon-fill__secondary" d="M47.6 59.6L24.7 46.3v26.6h45.7V46.3"/>
    <g class="icon-fill--muted">
      <path class="icon-fill__secondary" d="M48 33.4c-1.1 0-2.1.2-3 .6-.6-.7-1.5-1.1-2.5-1.1l.4 2.4c-.5.5-.8 1.1-1 1.7h-.8c-.4 0-.7.3-.7.7v1.4c0 .4.3.7.7.7h1.2c.2.4.5.7.9 1v1.7c0 .4.3.7.7.7h.7c.4 0 .7-.3.7-.7V42c.8.3 1.8.5 2.7.5 1 0 1.9-.2 2.7-.5v.5c0 .4.3.7.7.7h.7c.4 0 .7-.3.7-.7v-1.7c.9-.8 1.4-1.8 1.4-2.9 0-2.4-2.8-4.5-6.2-4.5zm-3.8 4c-.4 0-.8-.3-.8-.8 0-.4.3-.8.8-.8.4 0 .8.3.8.8-.1.4-.4.8-.8.8z"/>
      <circle class="icon-fill__secondary" cx="48.2" cy="30.7" r="2.2"/>
    </g>
  </symbol>

  <symbol id="ill-pension__monthly" viewBox="0 0 98.1 85.8">
    <title>Assess your team every month</title>
    <path class="icon-fill--muted icon-fill__secondary" d="M70.1 23.9c-.4-2.3-1.3-4.5-2.6-6.4l2.4-2.8-3.8-3.7-2.8 2.4c-1.9-1.3-4-2.2-6.4-2.6L56.6 7h-5.4l-.2 3.8c-2.3.4-4.5 1.3-6.4 2.6L41.8 11 38 14.7l2.4 2.8c-1.3 1.9-2.2 4-2.6 6.4l-3.7.3v5.4l3.7.3c.4 2.3 1.3 4.5 2.6 6.4L38 39l3.8 3.8 2.8-2.4c1.9 1.3 4 2.2 6.4 2.6l.3 3.7h5.4L57 43c2.3-.4 4.5-1.3 6.4-2.6l2.8 2.4L70 39l-2.4-2.8c1.3-1.9 2.2-4 2.6-6.4l3.7-.3v-5.4l-3.8-.2zm-7.9 3c0 4.6-3.7 8.3-8.3 8.3s-8.3-3.7-8.3-8.3c0-4.6 3.7-8.3 8.3-8.3s8.3 3.7 8.3 8.3z"/>
    <path class="icon-fill--muted icon-fill__secondary" d="M49.4 54.4c-.4-2.3-1.3-4.5-2.6-6.4l2.4-2.8-3.8-3.8-2.8 2.4c-1.9-1.3-4-2.2-6.4-2.6l-.2-3.6h-5.4l-.3 3.7c-2.3.4-4.5 1.3-6.4 2.6l-2.8-2.4-3.8 3.8 2.4 2.8c-1.3 1.9-2.2 4-2.6 6.4l-3.7.3v5.4l3.7.3c.4 2.3 1.3 4.5 2.6 6.4l-2.4 2.8 3.8 3.8 2.8-2.4c1.9 1.3 4 2.2 6.4 2.6l.3 3.7H36l.3-3.7c2.3-.4 4.5-1.3 6.4-2.6l2.8 2.4 3.8-3.8-2.4-2.8c1.3-1.9 2.2-4 2.6-6.4l3.7-.3v-5.4l-3.8-.4zm-7.8 3c0 4.6-3.7 8.3-8.3 8.3S25 62 25 57.4c0-4.6 3.7-8.3 8.3-8.3s8.3 3.7 8.3 8.3z"/>
    <path class="icon-fill__white" d="M83.7 40H32.4V20h51.3c1.1 0 2 .9 2 2v16c0 1.1-.9 2-2 2z"/>
    <path class="icon-fill__secondary" d="M14.4 20h18v20h-18c-1.1 0-2-.9-2-2V22c0-1.1.9-2 2-2z"/>
    <path class="icon-fill__white" d="M83.7 64H32.4V44h51.3c1.1 0 2 .9 2 2v16c0 1.1-.9 2-2 2z"/>
    <path class="icon-fill__secondary" d="M14.4 44h18v20h-18c-1.1 0-2-.9-2-2V46c0-1.1.9-2 2-2z"/>
    <g class="icon-fill--weak">
      <circle class="icon-fill__white" cx="22.4" cy="52" r="2.7"/>
      <path class="icon-fill__white" d="M25.3 54.2c-.1-.1-.4-.1-.5.1-.6.7-1.5 1.1-2.4 1.1s-1.8-.4-2.4-1.1c-.1-.1-.3-.2-.5-.1-1.4 1-2.2 2.5-2.2 4.2 0 .2.2.4.4.4h9.4c.2 0 .4-.2.4-.4 0-1.7-.8-3.3-2.2-4.2z"/>
    </g>
    <g class="icon-fill--weak">
      <circle class="icon-fill__white" cx="22.4" cy="28" r="2.7"/>
      <path class="icon-fill__white" d="M25.3 30.2c-.1-.1-.4-.1-.5.1-.6.7-1.5 1.1-2.4 1.1s-1.8-.4-2.4-1.1c-.1-.1-.3-.2-.5-.1-1.4 1-2.2 2.5-2.2 4.2 0 .2.2.4.4.4h9.4c.2 0 .4-.2.4-.4 0-1.7-.8-3.3-2.2-4.2z"/>
    </g>
  </symbol>



</svg>
